<svg xmlns="http://www.w3.org/2000/svg" version="1.1" xmlns:xlink="http://www.w3.org/1999/xlink" xmlns:svgjs="http://svgjs.dev/svgjs" viewBox="0 0 15.94507162913984 15.037711506149023"><g transform="matrix(1,0,0,1,1.2902848380074197,12.581411043141603)"><g><path d=" M 0.61669921875 0.345703125 Q 0.613037109375 0.320068359375 0.5987548828125 0.29736328125 Q 0.58447265625 0.274658203125 0.5621337890625 0.2581787109375 Q 0.539794921875 0.24169921875 0.5115966796875 0.232177734375 Q 0.4833984375 0.22265625 0.45263671875 0.22265625 Q 0.4248046875 0.22265625 0.400634765625 0.228515625 Q 0.37646484375 0.234375 0.3585205078125 0.2464599609375 Q 0.340576171875 0.258544921875 0.3299560546875 0.277587890625 Q 0.3193359375 0.296630859375 0.3193359375 0.322998046875 Q 0.3193359375 0.35595703125 0.3336181640625 0.3753662109375 Q 0.347900390625 0.394775390625 0.3702392578125 0.4072265625 Q 0.392578125 0.419677734375 0.419677734375 0.427001953125 Q 0.44677734375 0.434326171875 0.472412109375 0.443115234375 L 0.673828125 0.510498046875 Q 0.715576171875 0.525146484375 0.752197265625 0.55078125 Q 0.788818359375 0.576416015625 0.8155517578125 0.613037109375 Q 0.84228515625 0.649658203125 0.857666015625 0.697265625 Q 0.873046875 0.744873046875 0.873046875 0.80419921875 Q 0.873046875 0.884765625 0.8433837890625 0.951416015625 Q 0.813720703125 1.01806640625 0.76025390625 1.065673828125 Q 0.706787109375 1.11328125 0.632080078125 1.1396484375 Q 0.557373046875 1.166015625 0.466552734375 1.166015625 Q 0.40283203125 1.166015625 0.3460693359375 1.1517333984375 Q 0.289306640625 1.137451171875 0.242431640625 1.1103515625 Q 0.195556640625 1.083251953125 0.160400390625 1.0455322265625 Q 0.125244140625 1.0078125 0.10546875 0.960205078125 L 0.030029296875 0.960205078125 L 0.030029296875 0.73974609375 L 0.295166015625 0.73974609375 L 0.295166015625 0.78515625 Q 0.295166015625 0.818115234375 0.3057861328125 0.845947265625 Q 0.31640625 0.873779296875 0.337646484375 0.894287109375 Q 0.35888671875 0.914794921875 0.39111328125 0.9261474609375 Q 0.42333984375 0.9375 0.466552734375 0.9375 Q 0.532470703125 0.9375 0.56689453125 0.9071044921875 Q 0.601318359375 0.876708984375 0.601318359375 0.822509765625 Q 0.601318359375 0.794677734375 0.5892333984375 0.7760009765625 Q 0.5771484375 0.75732421875 0.55810546875 0.7445068359375 Q 0.5390625 0.731689453125 0.515625 0.722900390625 Q 0.4921875 0.714111328125 0.469482421875 0.706787109375 L 0.3017578125 0.652587890625 Q 0.254150390625 0.637939453125 0.2098388671875 0.611572265625 Q 0.16552734375 0.585205078125 0.1314697265625 0.545654296875 Q 0.097412109375 0.506103515625 0.0772705078125 0.4530029296875 Q 0.05712890625 0.39990234375 0.05712890625 0.331787109375 Q 0.05712890625 0.252685546875 0.08642578125 0.1907958984375 Q 0.11572265625 0.12890625 0.16845703125 0.08642578125 Q 0.22119140625 0.0439453125 0.293701171875 0.02197265625 Q 0.3662109375 0 0.45263671875 0 Q 0.520751953125 0 0.57861328125 0.0157470703125 Q 0.636474609375 0.031494140625 0.6822509765625 0.057861328125 Q 0.72802734375 0.084228515625 0.7598876953125 0.1182861328125 Q 0.791748046875 0.15234375 0.80859375 0.18896484375 L 0.8818359375 0.18896484375 L 0.8818359375 0.41015625 L 0.61669921875 0.41015625 L 0.61669921875 0.345703125 M 1.59375 0.706787109375 Q 1.59375 0.64306640625 1.56005859375 0.6068115234375 Q 1.5263671875 0.570556640625 1.470703125 0.570556640625 Q 1.4326171875 0.570556640625 1.393798828125 0.58740234375 Q 1.35498046875 0.604248046875 1.318359375 0.650390625 L 1.318359375 0.942626953125 L 1.44140625 0.942626953125 L 1.44140625 1.143310546875 L 0.9697265625 1.143310546875 L 0.9697265625 0.942626953125 L 1.0810546875 0.942626953125 L 1.0810546875 0.585205078125 L 0.97119140625 0.585205078125 L 0.97119140625 0.384521484375 L 1.31689453125 0.384521484375 L 1.31689453125 0.451171875 Q 1.364501953125 0.413818359375 1.4234619140625 0.3922119140625 Q 1.482421875 0.37060546875 1.547607421875 0.37060546875 Q 1.6845703125 0.37060546875 1.758544921875 0.4471435546875 Q 1.83251953125 0.523681640625 1.83251953125 0.6708984375 L 1.83251953125 0.942626953125 L 1.940185546875 0.942626953125 L 1.940185546875 1.143310546875 L 1.59375 1.143310546875 L 1.59375 0.706787109375 M 2.0625 0.032958984375 L 2.5751953125 0.032958984375 Q 2.660888671875 0.032958984375 2.732666015625 0.0596923828125 Q 2.804443359375 0.08642578125 2.8564453125 0.1318359375 Q 2.908447265625 0.17724609375 2.937744140625 0.236572265625 Q 2.967041015625 0.2958984375 2.967041015625 0.3603515625 Q 2.967041015625 0.43798828125 2.9439697265625 0.5057373046875 Q 2.9208984375 0.573486328125 2.87255859375 0.623291015625 Q 2.82421875 0.673095703125 2.750244140625 0.7020263671875 Q 2.67626953125 0.73095703125 2.5751953125 0.73095703125 L 2.420654296875 0.73095703125 L 2.420654296875 0.942626953125 L 2.5224609375 0.942626953125 L 2.5224609375 1.143310546875 L 2.0625 1.143310546875 L 2.0625 0.942626953125 L 2.177490234375 0.942626953125 L 2.177490234375 0.234375 L 2.0625 0.234375 L 2.0625 0.032958984375 M 2.420654296875 0.234375 L 2.420654296875 0.532470703125 L 2.52099609375 0.532470703125 Q 2.6044921875 0.532470703125 2.653564453125 0.497314453125 Q 2.70263671875 0.462158203125 2.70263671875 0.385986328125 Q 2.70263671875 0.31494140625 2.656494140625 0.274658203125 Q 2.6103515625 0.234375 2.52099609375 0.234375 L 2.420654296875 0.234375 M 3.814453125 0.37060546875 Q 3.7734375 0.31201171875 3.740478515625 0.2874755859375 Q 3.70751953125 0.262939453125 3.66943359375 0.2523193359375 Q 3.63134765625 0.24169921875 3.589599609375 0.24169921875 Q 3.528076171875 0.24169921875 3.475341796875 0.2691650390625 Q 3.422607421875 0.296630859375 3.3841552734375 0.3438720703125 Q 3.345703125 0.39111328125 3.32373046875 0.4537353515625 Q 3.3017578125 0.516357421875 3.3017578125 0.586669921875 Q 3.3017578125 0.65771484375 3.3233642578125 0.7203369140625 Q 3.344970703125 0.782958984375 3.383056640625 0.829833984375 Q 3.421142578125 0.876708984375 3.473876953125 0.9041748046875 Q 3.526611328125 0.931640625 3.589599609375 0.931640625 Q 3.633544921875 0.931640625 3.671630859375 0.9173583984375 Q 3.709716796875 0.903076171875 3.7408447265625 0.879638671875 Q 3.77197265625 0.856201171875 3.79541015625 0.8258056640625 Q 3.81884765625 0.79541015625 3.83203125 0.762451171875 L 4.06787109375 0.828369140625 Q 4.045166015625 0.900146484375 4.001220703125 0.9613037109375 Q 3.957275390625 1.0224609375 3.8953857421875 1.067138671875 Q 3.83349609375 1.11181640625 3.7562255859375 1.137451171875 Q 3.678955078125 1.1630859375 3.589599609375 1.1630859375 Q 3.51416015625 1.1630859375 3.4453125 1.142578125 Q 3.37646484375 1.1220703125 3.3167724609375 1.084716796875 Q 3.257080078125 1.04736328125 3.2083740234375 0.99462890625 Q 3.15966796875 0.94189453125 3.125244140625 0.8778076171875 Q 3.0908203125 0.813720703125 3.07177734375 0.7401123046875 Q 3.052734375 0.66650390625 3.052734375 0.586669921875 Q 3.052734375 0.46728515625 3.094482421875 0.3629150390625 Q 3.13623046875 0.258544921875 3.208740234375 0.1805419921875 Q 3.28125 0.1025390625 3.3790283203125 0.0574951171875 Q 3.476806640625 0.012451171875 3.589599609375 0.012451171875 Q 3.6796875 0.012451171875 3.7412109375 0.0347900390625 Q 3.802734375 0.05712890625 3.876708984375 0.123046875 L 4.040771484375 0.123046875 L 4.040771484375 0.37060546875 L 3.814453125 0.37060546875 M 4.194580078125 0.760986328125 Q 4.194580078125 0.67822265625 4.224609375 0.605712890625 Q 4.254638671875 0.533203125 4.30810546875 0.47900390625 Q 4.361572265625 0.4248046875 4.435546875 0.393310546875 Q 4.509521484375 0.36181640625 4.59814453125 0.36181640625 Q 4.686767578125 0.36181640625 4.7611083984375 0.393310546875 Q 4.83544921875 0.4248046875 4.888916015625 0.47900390625 Q 4.9423828125 0.533203125 4.9720458984375 0.605712890625 Q 5.001708984375 0.67822265625 5.001708984375 0.760986328125 Q 5.001708984375 0.84375 4.9727783203125 0.9166259765625 Q 4.94384765625 0.989501953125 4.8907470703125 1.0440673828125 Q 4.837646484375 1.0986328125 4.7633056640625 1.130126953125 Q 4.68896484375 1.16162109375 4.59814453125 1.16162109375 Q 4.506591796875 1.16162109375 4.4322509765625 1.130126953125 Q 4.35791015625 1.0986328125 4.30517578125 1.04443359375 Q 4.25244140625 0.990234375 4.2235107421875 0.9173583984375 Q 4.194580078125 0.844482421875 4.194580078125 0.760986328125 M 4.41357421875 0.760986328125 Q 4.41357421875 0.80419921875 4.42822265625 0.8404541015625 Q 4.44287109375 0.876708984375 4.4681396484375 0.903076171875 Q 4.493408203125 0.929443359375 4.5267333984375 0.944091796875 Q 4.56005859375 0.958740234375 4.59814453125 0.958740234375 Q 4.636962890625 0.958740234375 4.6702880859375 0.9444580078125 Q 4.70361328125 0.93017578125 4.7281494140625 0.90380859375 Q 4.752685546875 0.87744140625 4.7666015625 0.8411865234375 Q 4.780517578125 0.804931640625 4.780517578125 0.760986328125 Q 4.780517578125 0.715576171875 4.7666015625 0.678955078125 Q 4.752685546875 0.642333984375 4.7281494140625 0.61669921875 Q 4.70361328125 0.591064453125 4.6702880859375 0.5775146484375 Q 4.636962890625 0.56396484375 4.59814453125 0.564697265625 Q 4.56005859375 0.56396484375 4.5267333984375 0.5775146484375 Q 4.493408203125 0.591064453125 4.4681396484375 0.61669921875 Q 4.44287109375 0.642333984375 4.42822265625 0.678955078125 Q 4.41357421875 0.715576171875 4.41357421875 0.760986328125 M 5.735595703125 0.706787109375 Q 5.735595703125 0.64306640625 5.701904296875 0.6068115234375 Q 5.668212890625 0.570556640625 5.612548828125 0.570556640625 Q 5.574462890625 0.570556640625 5.53564453125 0.58740234375 Q 5.496826171875 0.604248046875 5.460205078125 0.650390625 L 5.460205078125 0.942626953125 L 5.583251953125 0.942626953125 L 5.583251953125 1.143310546875 L 5.111572265625 1.143310546875 L 5.111572265625 0.942626953125 L 5.222900390625 0.942626953125 L 5.222900390625 0.585205078125 L 5.113037109375 0.585205078125 L 5.113037109375 0.384521484375 L 5.458740234375 0.384521484375 L 5.458740234375 0.451171875 Q 5.50634765625 0.413818359375 5.5653076171875 0.3922119140625 Q 5.624267578125 0.37060546875 5.689453125 0.37060546875 Q 5.826416015625 0.37060546875 5.900390625 0.4471435546875 Q 5.974365234375 0.523681640625 5.974365234375 0.6708984375 L 5.974365234375 0.942626953125 L 6.08203125 0.942626953125 L 6.08203125 1.143310546875 L 5.735595703125 1.143310546875 L 5.735595703125 0.706787109375 M 6.6529541015625 0.5830078125 Q 6.6416015625 0.56689453125 6.61962890625 0.5548095703125 Q 6.59765625 0.542724609375 6.5657958984375 0.535400390625 Q 6.533935546875 0.528076171875 6.49365234375 0.528076171875 Q 6.478271484375 0.528076171875 6.460693359375 0.5306396484375 Q 6.443115234375 0.533203125 6.4281005859375 0.539794921875 Q 6.4130859375 0.54638671875 6.4031982421875 0.5577392578125 Q 6.393310546875 0.569091796875 6.393310546875 0.586669921875 Q 6.393310546875 0.595458984375 6.3958740234375 0.603515625 Q 6.3984375 0.611572265625 6.40576171875 0.618896484375 Q 6.4130859375 0.626220703125 6.4259033203125 0.6324462890625 Q 6.438720703125 0.638671875 6.459228515625 0.642333984375 L 6.596923828125 0.66943359375 Q 6.671630859375 0.68408203125 6.72216796875 0.7060546875 Q 6.772705078125 0.72802734375 6.803466796875 0.75732421875 Q 6.834228515625 0.78662109375 6.8477783203125 0.822509765625 Q 6.861328125 0.8583984375 6.861328125 0.900146484375 Q 6.861328125 0.96533203125 6.8309326171875 1.014404296875 Q 6.800537109375 1.0634765625 6.7510986328125 1.0960693359375 Q 6.70166015625 1.128662109375 6.6397705078125 1.1451416015625 Q 6.577880859375 1.16162109375 6.514892578125 1.16162109375 Q 6.473876953125 1.16162109375 6.4405517578125 1.156494140625 Q 6.4072265625 1.1513671875 6.3804931640625 1.142578125 Q 6.353759765625 1.1337890625 6.3328857421875 1.1217041015625 Q 6.31201171875 1.109619140625 6.29443359375 1.094970703125 L 6.161865234375 1.094970703125 L 6.161865234375 0.891357421875 L 6.369140625 0.891357421875 L 6.369140625 0.895751953125 Q 6.369873046875 0.9169921875 6.38232421875 0.9327392578125 Q 6.394775390625 0.948486328125 6.4149169921875 0.95947265625 Q 6.43505859375 0.970458984375 6.460693359375 0.9759521484375 Q 6.486328125 0.9814453125 6.514892578125 0.9814453125 Q 6.580810546875 0.9814453125 6.61083984375 0.9642333984375 Q 6.640869140625 0.947021484375 6.640869140625 0.919921875 Q 6.640869140625 0.898681640625 6.626220703125 0.8836669921875 Q 6.611572265625 0.86865234375 6.57421875 0.85986328125 L 6.43359375 0.829833984375 Q 6.301025390625 0.80419921875 6.233642578125 0.7445068359375 Q 6.166259765625 0.684814453125 6.166259765625 0.591064453125 Q 6.166259765625 0.5361328125 6.19189453125 0.4910888671875 Q 6.217529296875 0.446044921875 6.261474609375 0.4141845703125 Q 6.305419921875 0.38232421875 6.3643798828125 0.36474609375 Q 6.42333984375 0.34716796875 6.49072265625 0.34716796875 Q 6.536865234375 0.34716796875 6.57275390625 0.3526611328125 Q 6.608642578125 0.358154296875 6.63720703125 0.366943359375 Q 6.665771484375 0.375732421875 6.6873779296875 0.3878173828125 Q 6.708984375 0.39990234375 6.725830078125 0.4130859375 L 6.853271484375 0.4130859375 L 6.853271484375 0.61669921875 L 6.664306640625 0.61669921875 Q 6.664306640625 0.59912109375 6.6529541015625 0.5830078125 M 7.27294921875 0.384521484375 L 7.424560546875 0.384521484375 L 7.424560546875 0.576416015625 L 7.271484375 0.576416015625 L 7.27001953125 0.897216796875 Q 7.27001953125 0.925048828125 7.2744140625 0.9422607421875 Q 7.27880859375 0.95947265625 7.2872314453125 0.9697265625 Q 7.295654296875 0.97998046875 7.307373046875 0.983642578125 Q 7.319091796875 0.9873046875 7.33447265625 0.9873046875 Q 7.3623046875 0.9873046875 7.383544921875 0.9818115234375 Q 7.40478515625 0.976318359375 7.426025390625 0.968994140625 L 7.45751953125 1.1103515625 Q 7.420166015625 1.1337890625 7.3743896484375 1.147705078125 Q 7.32861328125 1.16162109375 7.265625 1.16162109375 Q 7.220947265625 1.16162109375 7.1802978515625 1.146240234375 Q 7.1396484375 1.130859375 7.10888671875 1.0997314453125 Q 7.078125 1.068603515625 7.059814453125 1.021728515625 Q 7.04150390625 0.974853515625 7.042236328125 0.91259765625 L 7.04443359375 0.576416015625 L 6.935302734375 0.576416015625 L 6.935302734375 0.384521484375 L 7.045166015625 0.384521484375 L 7.046630859375 0.202880859375 L 7.2744140625 0.094482421875 L 7.27294921875 0.384521484375 M 8.26025390625 0.66064453125 L 8.054443359375 0.66064453125 L 8.054443359375 0.582275390625 Q 8.0244140625 0.582275390625 7.99951171875 0.5863037109375 Q 7.974609375 0.59033203125 7.9559326171875 0.599853515625 Q 7.937255859375 0.609375 7.9244384765625 0.626220703125 Q 7.91162109375 0.64306640625 7.906494140625 0.66796875 L 7.906494140625 0.942626953125 L 8.06103515625 0.942626953125 L 8.06103515625 1.143310546875 L 7.56591796875 1.143310546875 L 7.56591796875 0.942626953125 L 7.679443359375 0.942626953125 L 7.679443359375 0.585205078125 L 7.5673828125 0.585205078125 L 7.5673828125 0.384521484375 L 7.905029296875 0.384521484375 L 7.905029296875 0.43798828125 Q 7.937255859375 0.412353515625 7.9775390625 0.3984375 Q 8.017822265625 0.384521484375 8.0654296875 0.384521484375 Q 8.11376953125 0.384521484375 8.1650390625 0.38525390625 Q 8.21630859375 0.385986328125 8.26025390625 0.385986328125 L 8.26025390625 0.66064453125 M 8.85498046875 0.384521484375 L 9.2138671875 0.384521484375 L 9.2138671875 0.942626953125 L 9.305419921875 0.942626953125 L 9.305419921875 1.143310546875 L 8.98388671875 1.143310546875 L 8.98388671875 1.078857421875 Q 8.945068359375 1.114013671875 8.89306640625 1.133056640625 Q 8.841064453125 1.152099609375 8.77294921875 1.152099609375 Q 8.7099609375 1.152099609375 8.654296875 1.13232421875 Q 8.5986328125 1.112548828125 8.5572509765625 1.0726318359375 Q 8.515869140625 1.03271484375 8.4920654296875 0.97265625 Q 8.46826171875 0.91259765625 8.46826171875 0.831298828125 L 8.46826171875 0.585205078125 L 8.369384765625 0.585205078125 L 8.369384765625 0.384521484375 L 8.704833984375 0.384521484375 L 8.704833984375 0.831298828125 Q 8.704833984375 0.907470703125 8.74365234375 0.9451904296875 Q 8.782470703125 0.98291015625 8.8447265625 0.98291015625 Q 8.888671875 0.98291015625 8.924560546875 0.955810546875 Q 8.96044921875 0.9287109375 8.9765625 0.882568359375 L 8.9765625 0.585205078125 L 8.85498046875 0.585205078125 L 8.85498046875 0.384521484375 M 9.984375 0.646728515625 Q 9.952880859375 0.607177734375 9.9140625 0.5870361328125 Q 9.875244140625 0.56689453125 9.822509765625 0.56982421875 Q 9.780029296875 0.56689453125 9.7452392578125 0.58154296875 Q 9.71044921875 0.59619140625 9.6851806640625 0.62255859375 Q 9.659912109375 0.64892578125 9.64599609375 0.6851806640625 Q 9.632080078125 0.721435546875 9.632080078125 0.766845703125 Q 9.632080078125 0.80712890625 9.646728515625 0.843017578125 Q 9.661376953125 0.87890625 9.6866455078125 0.9049072265625 Q 9.7119140625 0.930908203125 9.7467041015625 0.945556640625 Q 9.781494140625 0.960205078125 9.822509765625 0.963134765625 Q 9.85693359375 0.960205078125 9.8851318359375 0.9488525390625 Q 9.913330078125 0.9375 9.935302734375 0.9195556640625 Q 9.957275390625 0.901611328125 9.9730224609375 0.8792724609375 Q 9.98876953125 0.85693359375 9.99755859375 0.837158203125 L 10.198974609375 0.892822265625 Q 10.1865234375 0.936767578125 10.1561279296875 0.984375 Q 10.125732421875 1.031982421875 10.0770263671875 1.0711669921875 Q 10.0283203125 1.1103515625 9.9613037109375 1.135986328125 Q 9.894287109375 1.16162109375 9.80859375 1.16162109375 Q 9.721435546875 1.16162109375 9.648193359375 1.1297607421875 Q 9.574951171875 1.097900390625 9.522216796875 1.04296875 Q 9.469482421875 0.988037109375 9.4398193359375 0.9140625 Q 9.41015625 0.840087890625 9.41015625 0.755126953125 Q 9.41015625 0.6708984375 9.4405517578125 0.5987548828125 Q 9.470947265625 0.526611328125 9.5244140625 0.4727783203125 Q 9.577880859375 0.4189453125 9.6514892578125 0.388916015625 Q 9.72509765625 0.35888671875 9.8115234375 0.36181640625 Q 9.873046875 0.35888671875 9.930908203125 0.375732421875 Q 9.98876953125 0.392578125 10.040771484375 0.42626953125 L 10.1865234375 0.42626953125 L 10.1865234375 0.646728515625 L 9.984375 0.646728515625 M 10.56591796875 0.384521484375 L 10.717529296875 0.384521484375 L 10.717529296875 0.576416015625 L 10.564453125 0.576416015625 L 10.56298828125 0.897216796875 Q 10.56298828125 0.925048828125 10.5673828125 0.9422607421875 Q 10.57177734375 0.95947265625 10.5802001953125 0.9697265625 Q 10.588623046875 0.97998046875 10.600341796875 0.983642578125 Q 10.612060546875 0.9873046875 10.62744140625 0.9873046875 Q 10.6552734375 0.9873046875 10.676513671875 0.9818115234375 Q 10.69775390625 0.976318359375 10.718994140625 0.968994140625 L 10.75048828125 1.1103515625 Q 10.713134765625 1.1337890625 10.6673583984375 1.147705078125 Q 10.62158203125 1.16162109375 10.55859375 1.16162109375 Q 10.513916015625 1.16162109375 10.4732666015625 1.146240234375 Q 10.4326171875 1.130859375 10.40185546875 1.0997314453125 Q 10.37109375 1.068603515625 10.352783203125 1.021728515625 Q 10.33447265625 0.974853515625 10.335205078125 0.91259765625 L 10.33740234375 0.576416015625 L 10.228271484375 0.576416015625 L 10.228271484375 0.384521484375 L 10.338134765625 0.384521484375 L 10.339599609375 0.202880859375 L 10.5673828125 0.094482421875 L 10.56591796875 0.384521484375 M 10.86474609375 0.384521484375 L 11.205322265625 0.384521484375 L 11.205322265625 0.942626953125 L 11.310791015625 0.942626953125 L 11.310791015625 1.143310546875 L 10.86474609375 1.143310546875 L 10.86474609375 0.942626953125 L 10.97900390625 0.942626953125 L 10.97900390625 0.585205078125 L 10.86474609375 0.585205078125 L 10.86474609375 0.384521484375 M 10.96728515625 0.139892578125 Q 10.96728515625 0.11279296875 10.9771728515625 0.0889892578125 Q 10.987060546875 0.065185546875 11.004638671875 0.047607421875 Q 11.022216796875 0.030029296875 11.0460205078125 0.019775390625 Q 11.06982421875 0.009521484375 11.09765625 0.009521484375 Q 11.1240234375 0.009521484375 11.1474609375 0.019775390625 Q 11.1708984375 0.030029296875 11.1884765625 0.047607421875 Q 11.2060546875 0.065185546875 11.21630859375 0.0889892578125 Q 11.2265625 0.11279296875 11.2265625 0.139892578125 Q 11.2265625 0.1669921875 11.21630859375 0.1907958984375 Q 11.2060546875 0.214599609375 11.1884765625 0.232177734375 Q 11.1708984375 0.249755859375 11.1474609375 0.260009765625 Q 11.1240234375 0.270263671875 11.09765625 0.270263671875 Q 11.06982421875 0.270263671875 11.0460205078125 0.260009765625 Q 11.022216796875 0.249755859375 11.004638671875 0.232177734375 Q 10.987060546875 0.214599609375 10.9771728515625 0.1907958984375 Q 10.96728515625 0.1669921875 10.96728515625 0.139892578125 M 11.436767578125 0.760986328125 Q 11.436767578125 0.67822265625 11.466796875 0.605712890625 Q 11.496826171875 0.533203125 11.55029296875 0.47900390625 Q 11.603759765625 0.4248046875 11.677734375 0.393310546875 Q 11.751708984375 0.36181640625 11.84033203125 0.36181640625 Q 11.928955078125 0.36181640625 12.0032958984375 0.393310546875 Q 12.07763671875 0.4248046875 12.131103515625 0.47900390625 Q 12.1845703125 0.533203125 12.2142333984375 0.605712890625 Q 12.243896484375 0.67822265625 12.243896484375 0.760986328125 Q 12.243896484375 0.84375 12.2149658203125 0.9166259765625 Q 12.18603515625 0.989501953125 12.1329345703125 1.0440673828125 Q 12.079833984375 1.0986328125 12.0054931640625 1.130126953125 Q 11.93115234375 1.16162109375 11.84033203125 1.16162109375 Q 11.748779296875 1.16162109375 11.6744384765625 1.130126953125 Q 11.60009765625 1.0986328125 11.54736328125 1.04443359375 Q 11.49462890625 0.990234375 11.4656982421875 0.9173583984375 Q 11.436767578125 0.844482421875 11.436767578125 0.760986328125 M 11.65576171875 0.760986328125 Q 11.65576171875 0.80419921875 11.67041015625 0.8404541015625 Q 11.68505859375 0.876708984375 11.7103271484375 0.903076171875 Q 11.735595703125 0.929443359375 11.7689208984375 0.944091796875 Q 11.80224609375 0.958740234375 11.84033203125 0.958740234375 Q 11.879150390625 0.958740234375 11.9124755859375 0.9444580078125 Q 11.94580078125 0.93017578125 11.9703369140625 0.90380859375 Q 11.994873046875 0.87744140625 12.0087890625 0.8411865234375 Q 12.022705078125 0.804931640625 12.022705078125 0.760986328125 Q 12.022705078125 0.715576171875 12.0087890625 0.678955078125 Q 11.994873046875 0.642333984375 11.9703369140625 0.61669921875 Q 11.94580078125 0.591064453125 11.9124755859375 0.5775146484375 Q 11.879150390625 0.56396484375 11.84033203125 0.564697265625 Q 11.80224609375 0.56396484375 11.7689208984375 0.5775146484375 Q 11.735595703125 0.591064453125 11.7103271484375 0.61669921875 Q 11.68505859375 0.642333984375 11.67041015625 0.678955078125 Q 11.65576171875 0.715576171875 11.65576171875 0.760986328125 M 12.977783203125 0.706787109375 Q 12.977783203125 0.64306640625 12.944091796875 0.6068115234375 Q 12.910400390625 0.570556640625 12.854736328125 0.570556640625 Q 12.816650390625 0.570556640625 12.77783203125 0.58740234375 Q 12.739013671875 0.604248046875 12.702392578125 0.650390625 L 12.702392578125 0.942626953125 L 12.825439453125 0.942626953125 L 12.825439453125 1.143310546875 L 12.353759765625 1.143310546875 L 12.353759765625 0.942626953125 L 12.465087890625 0.942626953125 L 12.465087890625 0.585205078125 L 12.355224609375 0.585205078125 L 12.355224609375 0.384521484375 L 12.700927734375 0.384521484375 L 12.700927734375 0.451171875 Q 12.74853515625 0.413818359375 12.8074951171875 0.3922119140625 Q 12.866455078125 0.37060546875 12.931640625 0.37060546875 Q 13.068603515625 0.37060546875 13.142578125 0.4471435546875 Q 13.216552734375 0.523681640625 13.216552734375 0.6708984375 L 13.216552734375 0.942626953125 L 13.32421875 0.942626953125 L 13.32421875 1.143310546875 L 12.977783203125 1.143310546875 L 12.977783203125 0.706787109375" fill="#102036" fill-rule="nonzero"></path></g><g></g><g clip-path="url(#SvgjsClipPath1001)"><g clip-path="url(#acc058865-bcdf-4304-bced-6abe352d230d9e7b7e71-d409-4476-9250-20c1f5265a4a)"><path d=" M 5.759210910948805 -6.543955940603328 C 5.772527781615943 -6.613282002605778 5.810687889998243 -6.693966571941961 5.869662602952707 -6.738169630038762 C 6.0371865978157695 -6.863225117186037 6.130964224866702 -7.014970298905684 6.149260933724491 -7.20269341272184 C 6.170802930391918 -7.4261146924440204 6.039928306482533 -7.646234731118463 5.841182404761225 -7.711532159977914 C 5.841182404761225 -7.660670666547546 5.832117980189476 -7.612047302641065 5.842637188951753 -7.567508525115683 C 5.8964082507631765 -7.33569425967892 5.771856342758776 -7.206442279674353 5.5342229405599035 -7.120274293004642 C 5.35931311826801 -7.056487601573817 5.010556585208068 -7.222332999293963 5.005185074350735 -7.389968900633219 C 5.001324300922027 -7.502099189780038 5.004737448445958 -7.614956871022121 5.004737448445958 -7.748908923026853 C 4.636509188528185 -7.485537031303263 4.585815554812109 -7.047535083478263 4.9063716558710535 -6.809901681279391 C 5.079714787496226 -6.682272345179643 5.110489068449694 -6.554139429937021 5.097172197782557 -6.386167809169182 C 5.093143564639558 -6.334355110691161 5.090905435115669 -4.5433479124374045 5.092639985496683 -3.463058744494476 L 5.754342979234347 -3.4673111905898635 C 5.7521048497104585 -4.562260106914263 5.7457821338054735 -6.474126299458004 5.759210910948805 -6.543955940603328" fill="#3682ae" transform="matrix(1,0,0,1,0,0)" fill-rule="nonzero"></path></g><g clip-path="url(#acc058865-bcdf-4304-bced-6abe352d230d9e7b7e71-d409-4476-9250-20c1f5265a4a)"><path d=" M 5.097507917211139 -2.6593464324660783 C 5.112615291497387 -2.5283039488424013 5.064831226162366 -2.4400097391249957 4.940726944062742 -2.350764324359938 C 4.592641849859968 -2.1002057241606096 4.622912551670561 -1.6003194950000896 5.00406600958879 -1.40302837746931 C 5.00406600958879 -1.5069894938539345 5.003730290160207 -1.6003194950000896 5.00406600958879 -1.6933137767176625 C 5.00568865349361 -1.9261911536782712 5.3414640353149965 -2.0810697167313617 5.5852522937045626 -1.9837110824422073 C 5.794685263902438 -1.9003407576773572 5.878727027524455 -1.7828389576732064 5.842637188951752 -1.5896324265235222 C 5.832117980189475 -1.533903001378695 5.841182404761224 -1.4750961481385225 5.841182404761224 -1.3937960931832691 C 6.206948722202719 -1.6021099986192002 6.265867481919086 -2.073012450445363 5.9440244563839055 -2.3143387663586505 C 5.773646846377886 -2.4423038218869824 5.741082061805307 -2.569597438558146 5.753391774186694 -2.7382404981831527 C 5.755182277805805 -2.766720696374634 5.755182277805805 -3.779921931839004 5.754342979234346 -4.219882242997405 L 5.092639985496682 -4.215629796902018 C 5.09347928406814 -3.7624085683145756 5.0951019279729595 -2.680720569419215 5.097507917211139 -2.6593464324660783" fill="#3682ae" transform="matrix(1,0,0,1,0,0)" fill-rule="nonzero"></path></g><g clip-path="url(#acc058865-bcdf-4304-bced-6abe352d230d9e7b7e71-d409-4476-9250-20c1f5265a4a)"><path d=" M 5.754342979234346 -4.219882242997405 L 5.752720335329528 -4.219882242997405 L 5.092639985496682 -4.215685750140114 C 5.092975704925265 -4.0310400644193045 5.09347928406814 -3.7422094493614813 5.094094769687209 -3.463114697732572 C 5.0949340682586675 -3.0571739553372765 5.096053133020612 -2.67199186427605 5.097507917211139 -2.6593464324660783 C 5.112559338259291 -2.5283599020804974 5.064775272924268 -2.4400097391249957 4.940726944062743 -2.350820277598036 C 4.592641849859968 -2.1002057241606096 4.622912551670561 -1.6003194950000896 5.00406600958879 -1.40302837746931 C 5.00406600958879 -1.5070454470920343 5.003730290160207 -1.6003194950000896 5.00406600958879 -1.6933137767176625 C 5.005352934065026 -1.87779160272418 5.21624068845343 -2.0133662986337324 5.4250022197941385 -2.0133662986337324 C 5.479948299605605 -2.0133662986337324 5.534558659988485 -2.0039661546333996 5.5852522937045626 -1.9837670356803034 C 5.794685263902438 -1.9003407576773572 5.878727027524455 -1.7828949109113026 5.842637188951752 -1.5896324265235222 C 5.832062026951378 -1.5339589546167947 5.841182404761224 -1.4750961481385225 5.841182404761224 -1.3937960931832691 C 6.206892768964622 -1.6021099986192002 6.265867481919086 -2.073012450445363 5.9440244563839055 -2.3143387663586505 C 5.773590893139789 -2.4423038218869824 5.741082061805306 -2.569597438558146 5.753335820948596 -2.7382404981831527 C 5.755126324567708 -2.7667766496127317 5.755126324567708 -3.7799778850771 5.754342979234346 -4.219882242997405" fill="#102036" transform="matrix(1,0,0,1,0,0)" fill-rule="nonzero"></path></g><g clip-path="url(#acc058865-bcdf-4304-bced-6abe352d230d9e7b7e71-d409-4476-9250-20c1f5265a4a)"><path d=" M 8.652720712670085 -6.569862289842339 C 8.652273086765305 -6.596104358509932 8.659043428575071 -6.627214358891984 8.673479364004152 -6.6476372907974675 C 8.785721559627163 -6.805089702803031 8.936179816870576 -6.88185754547241 9.128938722115482 -6.844256969471081 C 9.21315499860467 -6.827282409419142 9.294677166629084 -6.798953879546887 9.37127219631452 -6.7600473461347725 C 9.568227594416715 -6.659275564321688 9.71823822575535 -6.5033338897447495 9.846986626617042 -6.325626405547995 C 9.928342634810393 -6.213831835829759 10.01434276176581 -6.1832254145905825 10.149413878532489 -6.215790199163162 C 10.237708088249894 -6.236996476402006 10.260201289964975 -6.273477987641391 10.221817368630285 -6.354274463453769 C 10.156911612437515 -6.4911360838395575 10.085795046815955 -6.625927434415748 10.0165808912897 -6.761669990039592 C 9.870375080141677 -6.952470531951095 9.709341660897891 -7.124358879385739 9.520611388795986 -7.268662280438457 C 9.243978579643356 -7.480501239874513 8.941383468013617 -7.628553507879744 8.581604147048523 -7.625699892736786 C 8.433719738757585 -7.624357015022452 8.285219844847575 -7.622734371117634 8.137503296270928 -7.624021295593869 C 8.097272918079032 -7.624357015022452 8.071030849411436 -7.611096097593412 8.044509014553357 -7.580769442544723 C 7.846714317879702 -7.355165986536751 7.503329295677094 -7.357124349870154 7.306038178146314 -7.580937302259013 C 7.289364113193343 -7.600073309688261 7.2570790948112505 -7.615460450164996 7.2315084650008234 -7.615796169593579 C 7.1767861981417465 -7.617250953784106 7.122007978044573 -7.616467608450745 7.067453570899788 -7.615964029307871 C 6.999750152802159 -7.615124730736412 6.931822921752139 -7.614341385403051 6.86411950365451 -7.617418813498398 C 6.7896457437471165 -7.621167680450911 6.750254664126676 -7.5893862412116935 6.73391631860229 -7.523137607304591 C 6.664086677456965 -7.246952424056738 6.664086677456965 -6.970935100523176 6.739735455364401 -6.696204701465851 L 6.751373728888621 -6.665933999655256 C 6.769390671555924 -6.624304790510929 6.798542308604573 -6.604049718319737 6.846494233653887 -6.605168783081681 C 6.9688080121343985 -6.608134304700833 7.091065837376814 -6.609253369462778 7.213995101476395 -6.606791426986501 C 7.259205317858944 -6.605672362224556 7.286566451288483 -6.621227362415582 7.315382368908549 -6.656086229750147 C 7.507357928820094 -6.8880124016631035 7.851917969022743 -6.886389757758284 8.022295579028762 -6.652337362797633 C 8.040592287886552 -6.627214358891984 8.051950795220286 -6.589781642604947 8.051335309601217 -6.5582240163181185 C 8.049320993029717 -6.236492897259131 8.043837575696191 -5.914370105533465 8.039137503696026 -5.592471126760186 C 8.030576658267151 -4.971781856547781 8.02195985960018 -4.088000460802269 8.013231154457014 -3.4673111905898635 L 8.7227182135297 -3.4673111905898635 C 8.699385713243162 -4.391714637193953 8.674766288480388 -5.6454588432382495 8.652720712670085 -6.569862289842339" fill="#3682ae" transform="matrix(1,0,0,1,0,0)" fill-rule="nonzero"></path></g><g clip-path="url(#acc058865-bcdf-4304-bced-6abe352d230d9e7b7e71-d409-4476-9250-20c1f5265a4a)"><path d=" M 8.7227182135297 -4.219882242997405 L 8.013231154457014 -4.219882242997405 C 8.004502449313847 -3.6082573973567476 7.995773744170683 -2.5067619521749727 7.986373600170351 -1.8954728259628997 C 7.984415236836948 -1.7755650367205664 8.037570813029301 -1.697845989003536 8.142315274747288 -1.6549298553829708 C 8.307545186848365 -1.586387138713885 8.473614397520898 -1.5883455020472859 8.635599021812336 -1.6664002691929003 C 8.72596350133934 -1.7104914208135078 8.772908268102903 -1.7830627706255928 8.769662980293262 -1.8889822503436218 C 8.760318789531029 -2.206628783021511 8.753156775054585 -2.52410745598511 8.745882854101946 -2.8419218483772912 C 8.737769634577852 -3.1599041004837645 8.73099929276809 -3.901899990890932 8.7227182135297 -4.219882242997405" fill="#a5b2ba" transform="matrix(1,0,0,1,0,0)" fill-rule="nonzero"></path></g><g clip-path="url(#acc058865-bcdf-4304-bced-6abe352d230d9e7b7e71-d409-4476-9250-20c1f5265a4a)"><path d=" M 8.7227182135297 -4.219882242997405 L 8.013231154457014 -4.219882242997405 C 8.004502449313847 -3.6082573973567476 7.995773744170683 -2.5067619521749727 7.986373600170351 -1.8954728259628997 C 7.984415236836948 -1.7755650367205664 8.037570813029301 -1.697845989003536 8.142315274747288 -1.6549298553829708 C 8.22104148075007 -1.6221972110961023 8.300103406181435 -1.6055231461431312 8.378829612184216 -1.6055231461431312 C 8.464997598853927 -1.6055231461431312 8.550829866095055 -1.6256103586200314 8.635599021812336 -1.6664002691929003 C 8.72596350133934 -1.7104914208135078 8.772908268102903 -1.7830627706255928 8.769662980293262 -1.8889822503436218 C 8.760318789531029 -2.206628783021511 8.753156775054585 -2.52410745598511 8.745882854101946 -2.8419218483772912 C 8.737769634577852 -3.1599041004837645 8.73099929276809 -3.901899990890932 8.7227182135297 -4.219882242997405" fill="#102036" transform="matrix(1,0,0,1,0,0)" fill-rule="nonzero"></path></g><g clip-path="url(#SvgjsClipPath10009e7b7e71-d409-4476-9250-20c1f5265a4a)"><path d=" M 6.6826496443806125 -11.291126205134184 L 0.8952943215094696 -7.135255398701636 L 0.8952943215094696 -3.4631562888576104 L 1.5587318656281477 -3.4631562888576104 L 1.5587318656281477 -6.794779944880084 L 6.6827055976187095 -10.474320835391039 L 11.805840031037814 -6.794779944880083 L 11.805840031037814 -3.4631562888576104 L 12.469277575156493 -3.4631562888576104 L 12.469277575156493 -7.135031585749248 L 6.6828175040949045 -11.291126205134184 Z" fill="#102036" transform="matrix(1,0,0,1,0,0)" fill-rule="nonzero"></path></g><g clip-path="url(#SvgjsClipPath10009e7b7e71-d409-4476-9250-20c1f5265a4a)"><path d=" M 11.80582486235681 -4.215653699345789 L 11.80582486235681 -0.9134614465624509 L 1.5587166969471449 -0.9134614465624509 L 1.5587166969471449 -4.215653699345789 L 0.8952791528284658 -4.215653699345789 L 0.8952791528284658 -0.25007985568186974 L 12.469262406475488 -0.25007985568186974 L 12.469262406475488 -4.215653699345789 Z" fill="#a5b2ba" transform="matrix(1,0,0,1,0,0)" fill-rule="nonzero"></path></g><g clip-path="url(#SvgjsClipPath10009e7b7e71-d409-4476-9250-20c1f5265a4a)"><path d=" M 4.6935909872351225 -9.850046955242286 L 0.9196010308160669 -7.139784008289386 L 0.9196010308160669 -4.2082260046619995 L 1.566084743791289 -4.2082260046619995 L 1.566084743791289 -6.787334561515028 L 6.690002522543753 -10.466875452025985 L 11.813136955962857 -6.787334561515029 L 11.813136955962857 -3.4557109054925554 L 11.813136955962857 -4.2082260046619995 L 12.468181514366954 -4.2082260046619995 L 12.468181514366954 -7.133573198860595 L 8.44945209451068 -10.020088845819723 L 6.689722756353267 -11.269916325197213 Z" fill="#3682ae" transform="matrix(1,0,0,1,0,0)" fill-rule="nonzero"></path></g><g clip-path="url(#SvgjsClipPath10009e7b7e71-d409-4476-9250-20c1f5265a4a)"><path d=" M 11.80582486235681 -4.215653699345789 L 11.80582486235681 -0.9134614465624509 L 1.5587166969471449 -0.9134614465624509 L 1.5587166969471449 -4.215653699345789 L 0.9122889372100204 -4.215653699345789 L 0.9122889372100204 -0.25007985568186974 L 12.460869420760906 -0.25007985568186974 L 12.460869420760906 -4.215653699345789 Z" fill="#102036" transform="matrix(1,0,0,1,0,0)" fill-rule="nonzero"></path></g></g></g><defs><clipPath id="SvgjsClipPath1001"><path d=" M 0.8952518763960011 -11.291126205134184 h 11.573998200332998 v 11.041126205134184 h -11.573998200332998 Z"></path></clipPath><clipPath id="acc058865-bcdf-4304-bced-6abe352d230d9e7b7e71-d409-4476-9250-20c1f5265a4a"><path d=" M 0.8952518763960011 -0.25 L 12.469235130043023 -0.25 L 12.469235130043023 -11.291084614009145 L 0.8952518763960011 -11.291084614009145 Z"></path></clipPath><clipPath id="SvgjsClipPath10009e7b7e71-d409-4476-9250-20c1f5265a4a"><path d=" M 0.8952518763960011 -11.291126205134184 L 12.469250076728999 -11.291126205134184 L 12.469250076728999 -0.25 L 0.8952518763960011 -0.25 Z"></path></clipPath></defs></svg>