<svg xmlns="http://www.w3.org/2000/svg" version="1.1" xmlns:xlink="http://www.w3.org/1999/xlink" xmlns:svgjs="http://svgjs.dev/svgjs" viewBox="0 0 12.774481378051105 1.9951767705586372"><g transform="matrix(1,0,0,1,0.38388838527931846,0.6295883852793186)"><g><path d=" M 0.28400000000000003 0.0010000000000000009 Q 0.343 0.0010000000000000009 0.375 0.013499999999999956 Q 0.40700000000000003 0.025999999999999912 0.43 0.039999999999999925 Q 0.442 0.04699999999999993 0.4495 0.05049999999999999 Q 0.457 0.05399999999999994 0.464 0.05399999999999994 Q 0.48 0.05399999999999994 0.486 0.010000000000000009 L 0.509 0.010000000000000009 Q 0.508 0.028999999999999915 0.5065000000000001 0.055499999999999994 Q 0.505 0.08199999999999996 0.5045000000000001 0.125 Q 0.504 0.16799999999999993 0.504 0.238 L 0.481 0.238 Q 0.47700000000000004 0.18599999999999994 0.457 0.137 Q 0.437 0.08799999999999997 0.4005 0.056499999999999995 Q 0.364 0.02499999999999991 0.311 0.02499999999999991 Q 0.263 0.02499999999999991 0.232 0.051999999999999935 Q 0.201 0.07899999999999996 0.201 0.127 Q 0.201 0.16699999999999993 0.221 0.1955 Q 0.241 0.22399999999999998 0.2795 0.25099999999999995 Q 0.318 0.27799999999999997 0.373 0.31599999999999995 Q 0.421 0.347 0.459 0.37799999999999995 Q 0.497 0.409 0.52 0.44799999999999995 Q 0.543 0.487 0.543 0.5409999999999999 Q 0.543 0.607 0.5085000000000001 0.6499999999999999 Q 0.47400000000000003 0.693 0.418 0.7145 Q 0.362 0.736 0.295 0.736 Q 0.233 0.736 0.196 0.724 Q 0.159 0.712 0.134 0.699 Q 0.112 0.6849999999999999 0.1 0.6849999999999999 Q 0.084 0.6849999999999999 0.078 0.729 L 0.055 0.729 Q 0.057 0.705 0.0575 0.6729999999999999 Q 0.058 0.641 0.0585 0.5894999999999999 Q 0.059000000000000004 0.538 0.059000000000000004 0.45899999999999996 L 0.082 0.45899999999999996 Q 0.08600000000000001 0.5249999999999999 0.1045 0.5825 Q 0.123 0.64 0.1615 0.6749999999999999 Q 0.2 0.71 0.264 0.71 Q 0.316 0.71 0.352 0.6819999999999999 Q 0.388 0.6539999999999999 0.388 0.598 Q 0.388 0.536 0.34600000000000003 0.49549999999999994 Q 0.304 0.45499999999999996 0.23800000000000002 0.412 Q 0.191 0.38099999999999995 0.15 0.35 Q 0.109 0.31899999999999995 0.0845 0.27899999999999997 Q 0.06 0.239 0.06 0.18399999999999994 Q 0.06 0.121 0.0915 0.08050000000000002 Q 0.123 0.039999999999999925 0.17450000000000002 0.020499999999999963 Q 0.226 0.0010000000000000009 0.28400000000000003 0.0010000000000000009 M 1.278984375 0.014000000000000012 L 1.278984375 0.03399999999999992 Q 1.246984375 0.03799999999999992 1.230984375 0.05049999999999999 Q 1.214984375 0.06299999999999994 1.2094843750000002 0.08999999999999997 Q 1.203984375 0.11699999999999999 1.203984375 0.16599999999999993 L 1.203984375 0.724 Q 1.191984375 0.723 1.179484375 0.723 Q 1.166984375 0.723 1.152984375 0.724 L 0.718984375 0.17399999999999993 L 0.718984375 0.5579999999999999 Q 0.718984375 0.613 0.724984375 0.6425 Q 0.730984375 0.6719999999999999 0.751484375 0.6845 Q 0.771984375 0.697 0.815984375 0.702 L 0.815984375 0.722 Q 0.796984375 0.72 0.7659843749999999 0.7195 Q 0.734984375 0.719 0.707984375 0.719 Q 0.684984375 0.719 0.660984375 0.7195 Q 0.636984375 0.72 0.620984375 0.722 L 0.620984375 0.702 Q 0.652984375 0.697 0.668984375 0.6849999999999999 Q 0.684984375 0.6729999999999999 0.690484375 0.6455 Q 0.695984375 0.618 0.695984375 0.57 L 0.695984375 0.12 Q 0.695984375 0.08299999999999996 0.690484375 0.0655 Q 0.684984375 0.04799999999999993 0.668484375 0.04149999999999998 Q 0.6519843750000001 0.03499999999999992 0.620984375 0.03399999999999992 L 0.620984375 0.014000000000000012 Q 0.636984375 0.015000000000000013 0.660984375 0.016000000000000014 Q 0.684984375 0.017000000000000015 0.707984375 0.017000000000000015 Q 0.731984375 0.017000000000000015 0.753984375 0.016000000000000014 Q 0.775984375 0.015000000000000013 0.793984375 0.014000000000000012 L 1.180984375 0.491 L 1.180984375 0.17799999999999994 Q 1.180984375 0.123 1.174984375 0.09349999999999992 Q 1.168984375 0.06399999999999995 1.148484375 0.050999999999999934 Q 1.127984375 0.03799999999999992 1.083984375 0.03399999999999992 L 1.083984375 0.014000000000000012 Q 1.1029843750000001 0.015000000000000013 1.133984375 0.016000000000000014 Q 1.164984375 0.017000000000000015 1.191984375 0.017000000000000015 Q 1.2159843750000001 0.017000000000000015 1.239484375 0.016000000000000014 Q 1.262984375 0.015000000000000013 1.278984375 0.014000000000000012 M 1.34396923828125 0.014000000000000012 Q 1.36896923828125 0.015000000000000013 1.41146923828125 0.016000000000000014 Q 1.4539692382812501 0.017000000000000015 1.49596923828125 0.017000000000000015 Q 1.54396923828125 0.017000000000000015 1.58896923828125 0.016000000000000014 Q 1.63396923828125 0.015000000000000013 1.65296923828125 0.015000000000000013 Q 1.79196923828125 0.015000000000000013 1.8609692382812502 0.06999999999999995 Q 1.92996923828125 0.125 1.92996923828125 0.21199999999999997 Q 1.92996923828125 0.24799999999999994 1.9159692382812499 0.2875 Q 1.90196923828125 0.32699999999999996 1.86846923828125 0.3605 Q 1.83496923828125 0.39399999999999996 1.77696923828125 0.415 Q 1.71896923828125 0.43599999999999994 1.63096923828125 0.43599999999999994 L 1.52896923828125 0.43599999999999994 L 1.52896923828125 0.416 L 1.62096923828125 0.416 Q 1.67996923828125 0.416 1.71046923828125 0.38899999999999996 Q 1.74096923828125 0.362 1.75246923828125 0.31799999999999995 Q 1.76396923828125 0.27399999999999997 1.76396923828125 0.22299999999999998 Q 1.76396923828125 0.128 1.73596923828125 0.08099999999999996 Q 1.7079692382812501 0.03399999999999992 1.63996923828125 0.03399999999999992 Q 1.60096923828125 0.03399999999999992 1.58946923828125 0.050999999999999934 Q 1.57796923828125 0.06799999999999995 1.57796923828125 0.12 L 1.57796923828125 0.61 Q 1.57796923828125 0.649 1.58596923828125 0.6679999999999999 Q 1.59396923828125 0.6869999999999999 1.61696923828125 0.693 Q 1.63996923828125 0.699 1.68496923828125 0.7 L 1.68496923828125 0.722 Q 1.65396923828125 0.721 1.60496923828125 0.72 Q 1.55596923828125 0.719 1.50196923828125 0.719 Q 1.45896923828125 0.719 1.41796923828125 0.72 Q 1.37696923828125 0.721 1.34396923828125 0.722 L 1.34396923828125 0.702 Q 1.37596923828125 0.7 1.39196923828125 0.694 Q 1.40796923828125 0.688 1.41346923828125 0.6699999999999999 Q 1.41896923828125 0.6519999999999999 1.41896923828125 0.616 L 1.41896923828125 0.12 Q 1.41896923828125 0.08299999999999996 1.41346923828125 0.0655 Q 1.40796923828125 0.04799999999999993 1.39146923828125 0.04149999999999998 Q 1.37496923828125 0.03499999999999992 1.34396923828125 0.03399999999999992 L 1.34396923828125 0.014000000000000012" fill="#252d32" fill-rule="nonzero"></path></g><g><path d=" M 4.29753712702372 0 Q 4.3635371270237195 0 4.40603712702372 0.019499999999999962 Q 4.4485371270237195 0.038999999999999924 4.48153712702372 0.06499999999999995 Q 4.50153712702372 0.07999999999999996 4.51203712702372 0.0685 Q 4.52253712702372 0.05699999999999994 4.52653712702372 0.014000000000000012 L 4.54953712702372 0.014000000000000012 Q 4.54753712702372 0.052999999999999936 4.54653712702372 0.10849999999999993 Q 4.54553712702372 0.16399999999999992 4.54553712702372 0.25599999999999995 L 4.52253712702372 0.25599999999999995 Q 4.51753712702372 0.20999999999999996 4.5095371270237194 0.1775 Q 4.50153712702372 0.14500000000000002 4.48753712702372 0.12 Q 4.47353712702372 0.09499999999999997 4.44753712702372 0.07499999999999996 Q 4.42253712702372 0.04999999999999993 4.38953712702372 0.03799999999999992 Q 4.35653712702372 0.025999999999999912 4.32053712702372 0.025999999999999912 Q 4.26653712702372 0.025999999999999912 4.22853712702372 0.05449999999999999 Q 4.1905371270237195 0.08299999999999996 4.16703712702372 0.132 Q 4.14353712702372 0.18099999999999994 4.13253712702372 0.24249999999999994 Q 4.1215371270237195 0.304 4.1215371270237195 0.37 Q 4.1215371270237195 0.43699999999999994 4.13303712702372 0.49849999999999994 Q 4.14453712702372 0.5599999999999999 4.16903712702372 0.608 Q 4.19353712702372 0.6559999999999999 4.23253712702372 0.6839999999999999 Q 4.27153712702372 0.712 4.32453712702372 0.712 Q 4.35753712702372 0.712 4.39103712702372 0.6995 Q 4.42453712702372 0.6869999999999999 4.4485371270237195 0.6629999999999999 Q 4.48753712702372 0.633 4.50153712702372 0.5885 Q 4.51553712702372 0.544 4.52253712702372 0.47 L 4.54553712702372 0.47 Q 4.54553712702372 0.565 4.54653712702372 0.6234999999999999 Q 4.54753712702372 0.6819999999999999 4.54953712702372 0.722 L 4.52653712702372 0.722 Q 4.52253712702372 0.6789999999999999 4.51303712702372 0.6679999999999999 Q 4.50353712702372 0.657 4.48153712702372 0.6709999999999999 Q 4.44453712702372 0.697 4.40303712702372 0.7165 Q 4.36153712702372 0.736 4.29653712702372 0.736 Q 4.1905371270237195 0.736 4.11103712702372 0.693 Q 4.03153712702372 0.6499999999999999 3.98753712702372 0.569 Q 3.94353712702372 0.488 3.94353712702372 0.37399999999999994 Q 3.94353712702372 0.26199999999999996 3.9890371270237197 0.17799999999999994 Q 4.03453712702372 0.09399999999999997 4.11403712702372 0.04699999999999993 Q 4.19353712702372 0 4.29753712702372 0 M 5.00455421686747 0 Q 5.11055421686747 0 5.19005421686747 0.04299999999999993 Q 5.26955421686747 0.08599999999999997 5.31355421686747 0.16649999999999998 Q 5.35755421686747 0.24699999999999994 5.35755421686747 0.362 Q 5.35755421686747 0.474 5.31255421686747 0.5579999999999999 Q 5.26755421686747 0.642 5.1870542168674705 0.689 Q 5.10655421686747 0.736 5.00355421686747 0.736 Q 4.89755421686747 0.736 4.81805421686747 0.693 Q 4.73855421686747 0.6499999999999999 4.69455421686747 0.569 Q 4.65055421686747 0.488 4.65055421686747 0.37399999999999994 Q 4.65055421686747 0.26199999999999996 4.69605421686747 0.17799999999999994 Q 4.7415542168674705 0.09399999999999997 4.82105421686747 0.04699999999999993 Q 4.90055421686747 0 5.00455421686747 0 M 5.00055421686747 0.018000000000000016 Q 4.94455421686747 0.018000000000000016 4.90305421686747 0.06299999999999994 Q 4.86155421686747 0.10799999999999998 4.83905421686747 0.18699999999999994 Q 4.81655421686747 0.26599999999999996 4.81655421686747 0.37 Q 4.81655421686747 0.476 4.84205421686747 0.5545 Q 4.86755421686747 0.633 4.91105421686747 0.6755 Q 4.9545542168674706 0.718 5.0075542168674705 0.718 Q 5.0635542168674705 0.718 5.10505421686747 0.6729999999999999 Q 5.14655421686747 0.628 5.16905421686747 0.5485 Q 5.19155421686747 0.469 5.19155421686747 0.366 Q 5.19155421686747 0.25899999999999995 5.166054216867471 0.18099999999999994 Q 5.1405542168674705 0.10299999999999998 5.09705421686747 0.0605 Q 5.05355421686747 0.018000000000000016 5.00055421686747 0.018000000000000016 M 6.08758839655497 0.014000000000000012 L 6.08758839655497 0.03399999999999992 Q 6.05558839655497 0.03799999999999992 6.03958839655497 0.05049999999999999 Q 6.02358839655497 0.06299999999999994 6.01808839655497 0.08999999999999997 Q 6.01258839655497 0.11699999999999999 6.01258839655497 0.16599999999999993 L 6.01258839655497 0.724 Q 6.00058839655497 0.723 5.98808839655497 0.723 Q 5.97558839655497 0.723 5.96158839655497 0.724 L 5.52758839655497 0.17399999999999993 L 5.52758839655497 0.5579999999999999 Q 5.52758839655497 0.613 5.53358839655497 0.6425 Q 5.5395883965549695 0.6719999999999999 5.56008839655497 0.6845 Q 5.58058839655497 0.697 5.62458839655497 0.702 L 5.62458839655497 0.722 Q 5.60558839655497 0.72 5.57458839655497 0.7195 Q 5.54358839655497 0.719 5.51658839655497 0.719 Q 5.49358839655497 0.719 5.46958839655497 0.7195 Q 5.44558839655497 0.72 5.42958839655497 0.722 L 5.42958839655497 0.702 Q 5.46158839655497 0.697 5.47758839655497 0.6849999999999999 Q 5.49358839655497 0.6729999999999999 5.49908839655497 0.6455 Q 5.50458839655497 0.618 5.50458839655497 0.57 L 5.50458839655497 0.12 Q 5.50458839655497 0.08299999999999996 5.49908839655497 0.0655 Q 5.49358839655497 0.04799999999999993 5.4770883965549695 0.04149999999999998 Q 5.46058839655497 0.03499999999999992 5.42958839655497 0.03399999999999992 L 5.42958839655497 0.014000000000000012 Q 5.44558839655497 0.015000000000000013 5.46958839655497 0.016000000000000014 Q 5.49358839655497 0.017000000000000015 5.51658839655497 0.017000000000000015 Q 5.54058839655497 0.017000000000000015 5.56258839655497 0.016000000000000014 Q 5.58458839655497 0.015000000000000013 5.60258839655497 0.014000000000000012 L 5.98958839655497 0.491 L 5.98958839655497 0.17799999999999994 Q 5.98958839655497 0.123 5.983588396554969 0.09349999999999992 Q 5.97758839655497 0.06399999999999995 5.95708839655497 0.050999999999999934 Q 5.93658839655497 0.03799999999999992 5.89258839655497 0.03399999999999992 L 5.89258839655497 0.014000000000000012 Q 5.91158839655497 0.015000000000000013 5.94258839655497 0.016000000000000014 Q 5.97358839655497 0.017000000000000015 6.00058839655497 0.017000000000000015 Q 6.02458839655497 0.017000000000000015 6.04808839655497 0.016000000000000014 Q 6.07158839655497 0.015000000000000013 6.08758839655497 0.014000000000000012 M 6.4025732598362195 0.0010000000000000009 Q 6.46157325983622 0.0010000000000000009 6.49357325983622 0.013499999999999956 Q 6.52557325983622 0.025999999999999912 6.548573259836219 0.039999999999999925 Q 6.56057325983622 0.04699999999999993 6.56807325983622 0.05049999999999999 Q 6.5755732598362195 0.05399999999999994 6.58257325983622 0.05399999999999994 Q 6.59857325983622 0.05399999999999994 6.6045732598362195 0.010000000000000009 L 6.62757325983622 0.010000000000000009 Q 6.62657325983622 0.028999999999999915 6.62507325983622 0.055499999999999994 Q 6.62357325983622 0.08199999999999996 6.62307325983622 0.125 Q 6.622573259836219 0.16799999999999993 6.622573259836219 0.238 L 6.59957325983622 0.238 Q 6.59557325983622 0.18599999999999994 6.5755732598362195 0.137 Q 6.55557325983622 0.08799999999999997 6.51907325983622 0.056499999999999995 Q 6.48257325983622 0.02499999999999991 6.42957325983622 0.02499999999999991 Q 6.38157325983622 0.02499999999999991 6.35057325983622 0.051999999999999935 Q 6.319573259836219 0.07899999999999996 6.319573259836219 0.127 Q 6.319573259836219 0.16699999999999993 6.33957325983622 0.1955 Q 6.359573259836219 0.22399999999999998 6.398073259836219 0.25099999999999995 Q 6.436573259836219 0.27799999999999997 6.49157325983622 0.31599999999999995 Q 6.53957325983622 0.347 6.577573259836219 0.37799999999999995 Q 6.61557325983622 0.409 6.638573259836219 0.44799999999999995 Q 6.66157325983622 0.487 6.66157325983622 0.5409999999999999 Q 6.66157325983622 0.607 6.627073259836219 0.6499999999999999 Q 6.59257325983622 0.693 6.53657325983622 0.7145 Q 6.48057325983622 0.736 6.41357325983622 0.736 Q 6.351573259836219 0.736 6.314573259836219 0.724 Q 6.2775732598362195 0.712 6.25257325983622 0.699 Q 6.23057325983622 0.6849999999999999 6.218573259836219 0.6849999999999999 Q 6.202573259836219 0.6849999999999999 6.19657325983622 0.729 L 6.173573259836219 0.729 Q 6.17557325983622 0.705 6.17607325983622 0.6729999999999999 Q 6.1765732598362195 0.641 6.17707325983622 0.5894999999999999 Q 6.17757325983622 0.538 6.17757325983622 0.45899999999999996 L 6.2005732598362195 0.45899999999999996 Q 6.20457325983622 0.5249999999999999 6.2230732598362195 0.5825 Q 6.24157325983622 0.64 6.28007325983622 0.6749999999999999 Q 6.31857325983622 0.71 6.38257325983622 0.71 Q 6.4345732598362195 0.71 6.47057325983622 0.6819999999999999 Q 6.50657325983622 0.6539999999999999 6.50657325983622 0.598 Q 6.50657325983622 0.536 6.46457325983622 0.49549999999999994 Q 6.42257325983622 0.45499999999999996 6.35657325983622 0.412 Q 6.3095732598362195 0.38099999999999995 6.26857325983622 0.35 Q 6.22757325983622 0.31899999999999995 6.20307325983622 0.27899999999999997 Q 6.178573259836219 0.239 6.178573259836219 0.18399999999999994 Q 6.178573259836219 0.121 6.21007325983622 0.08050000000000002 Q 6.24157325983622 0.039999999999999925 6.29307325983622 0.020499999999999963 Q 6.34457325983622 0.0010000000000000009 6.4025732598362195 0.0010000000000000009 M 7.34655763483622 0.014000000000000012 Q 7.342557634836219 0.06499999999999995 7.341057634836219 0.11199999999999999 Q 7.339557634836219 0.15899999999999992 7.339557634836219 0.18399999999999994 Q 7.339557634836219 0.20599999999999996 7.34055763483622 0.22599999999999998 Q 7.341557634836219 0.24599999999999994 7.342557634836219 0.25999999999999995 L 7.31955763483622 0.25999999999999995 Q 7.30355763483622 0.17599999999999993 7.279057634836219 0.127 Q 7.254557634836219 0.07799999999999996 7.2205576348362195 0.057499999999999996 Q 7.18655763483622 0.03699999999999992 7.140557634836219 0.03699999999999992 L 7.11755763483622 0.03699999999999992 L 7.11755763483622 0.608 Q 7.11755763483622 0.648 7.1260576348362195 0.6679999999999999 Q 7.134557634836219 0.688 7.15755763483622 0.6945 Q 7.1805576348362194 0.701 7.22455763483622 0.702 L 7.22455763483622 0.722 Q 7.193557634836219 0.721 7.1420576348362195 0.72 Q 7.09055763483622 0.719 7.0345576348362195 0.719 Q 6.97955763483622 0.719 6.9305576348362194 0.72 Q 6.881557634836219 0.721 6.85155763483622 0.722 L 6.85155763483622 0.702 Q 6.89655763483622 0.701 6.919557634836219 0.6945 Q 6.94255763483622 0.688 6.950557634836219 0.6679999999999999 Q 6.95855763483622 0.648 6.95855763483622 0.608 L 6.95855763483622 0.03699999999999992 L 6.93655763483622 0.03699999999999992 Q 6.890557634836219 0.03699999999999992 6.85655763483622 0.057499999999999996 Q 6.82255763483622 0.07799999999999996 6.79855763483622 0.12649999999999995 Q 6.77455763483622 0.17499999999999993 6.756557634836219 0.25999999999999995 L 6.733557634836219 0.25999999999999995 Q 6.735557634836219 0.24599999999999994 6.73605763483622 0.22599999999999998 Q 6.7365576348362195 0.20599999999999996 6.7365576348362195 0.18399999999999994 Q 6.7365576348362195 0.15899999999999992 6.735057634836219 0.11199999999999999 Q 6.733557634836219 0.06499999999999995 6.72955763483622 0.014000000000000012 Q 6.775557634836219 0.015000000000000013 6.830057634836219 0.016000000000000014 Q 6.884557634836219 0.017000000000000015 6.93955763483622 0.017000000000000015 Q 6.9945576348362195 0.017000000000000015 7.038557634836219 0.017000000000000015 Q 7.08355763483622 0.017000000000000015 7.138057634836219 0.017000000000000015 Q 7.19255763483622 0.017000000000000015 7.24755763483622 0.016000000000000014 Q 7.302557634836219 0.015000000000000013 7.34655763483622 0.014000000000000012 M 7.408587419992469 0.014000000000000012 Q 7.433587419992469 0.015000000000000013 7.476087419992469 0.016000000000000014 Q 7.518587419992469 0.017000000000000015 7.560587419992469 0.017000000000000015 Q 7.608587419992469 0.017000000000000015 7.653587419992469 0.016000000000000014 Q 7.698587419992469 0.015000000000000013 7.717587419992469 0.015000000000000013 Q 7.8565874199924695 0.015000000000000013 7.925587419992469 0.0605 Q 7.994587419992469 0.10599999999999998 7.994587419992469 0.18899999999999995 Q 7.994587419992469 0.22299999999999998 7.980587419992469 0.25749999999999995 Q 7.966587419992469 0.292 7.93308741999247 0.32149999999999995 Q 7.89958741999247 0.351 7.841587419992469 0.3685 Q 7.783587419992469 0.38599999999999995 7.695587419992469 0.38599999999999995 L 7.599587419992469 0.38599999999999995 L 7.599587419992469 0.366 L 7.685587419992469 0.366 Q 7.744587419992469 0.366 7.775087419992469 0.34349999999999997 Q 7.805587419992469 0.32099999999999995 7.817087419992469 0.2835 Q 7.828587419992469 0.24599999999999994 7.828587419992469 0.19999999999999996 Q 7.828587419992469 0.121 7.800587419992469 0.07750000000000001 Q 7.772587419992469 0.03399999999999992 7.704587419992469 0.03399999999999992 Q 7.66558741999247 0.03399999999999992 7.654087419992469 0.050999999999999934 Q 7.642587419992469 0.06799999999999995 7.642587419992469 0.12 L 7.642587419992469 0.616 Q 7.642587419992469 0.6519999999999999 7.6480874199924695 0.6699999999999999 Q 7.653587419992469 0.688 7.669587419992469 0.694 Q 7.685587419992469 0.7 7.717587419992469 0.702 L 7.717587419992469 0.722 Q 7.690587419992469 0.72 7.64958741999247 0.7195 Q 7.608587419992469 0.719 7.566587419992469 0.719 Q 7.518587419992469 0.719 7.476087419992469 0.7195 Q 7.433587419992469 0.72 7.408587419992469 0.722 L 7.408587419992469 0.702 Q 7.440587419992469 0.7 7.456587419992469 0.694 Q 7.472587419992469 0.688 7.47808741999247 0.6699999999999999 Q 7.483587419992469 0.6519999999999999 7.483587419992469 0.616 L 7.483587419992469 0.12 Q 7.483587419992469 0.08299999999999996 7.47808741999247 0.0655 Q 7.472587419992469 0.04799999999999993 7.456087419992469 0.04149999999999998 Q 7.43958741999247 0.03499999999999992 7.408587419992469 0.03399999999999992 L 7.408587419992469 0.014000000000000012 M 7.597587419992469 0.369 Q 7.640587419992469 0.37 7.67208741999247 0.37299999999999994 Q 7.703587419992469 0.37599999999999995 7.727587419992469 0.37849999999999995 Q 7.751587419992469 0.38099999999999995 7.770587419992469 0.38199999999999995 Q 7.861587419992469 0.38999999999999996 7.905087419992469 0.421 Q 7.948587419992469 0.45199999999999996 7.961587419992469 0.514 L 7.98458741999247 0.617 Q 7.993587419992469 0.657 8.003587419992469 0.6729999999999999 Q 8.013587419992469 0.689 8.032587419992469 0.689 Q 8.045587419992469 0.688 8.05408741999247 0.6825 Q 8.06258741999247 0.6769999999999999 8.07258741999247 0.6659999999999999 L 8.086587419992469 0.6779999999999999 Q 8.05958741999247 0.709 8.02858741999247 0.7224999999999999 Q 7.9975874199924695 0.736 7.953587419992469 0.736 Q 7.89958741999247 0.736 7.8645874199924695 0.713 Q 7.829587419992469 0.69 7.818587419992469 0.628 L 7.800587419992469 0.528 Q 7.793587419992469 0.486 7.783587419992469 0.45449999999999996 Q 7.773587419992469 0.423 7.756087419992469 0.40449999999999997 Q 7.738587419992469 0.38599999999999995 7.707587419992469 0.38599999999999995 L 7.599587419992469 0.38599999999999995 L 7.597587419992469 0.369 M 8.73661329889872 0.014000000000000012 L 8.73661329889872 0.03399999999999992 Q 8.70461329889872 0.03799999999999992 8.68811329889872 0.05049999999999999 Q 8.67161329889872 0.06299999999999994 8.66661329889872 0.08999999999999997 Q 8.66161329889872 0.11699999999999999 8.66161329889872 0.16599999999999993 L 8.66161329889872 0.431 Q 8.66161329889872 0.496 8.65261329889872 0.5499999999999999 Q 8.64361329889872 0.604 8.62061329889872 0.643 Q 8.59461329889872 0.6859999999999999 8.54461329889872 0.711 Q 8.49461329889872 0.736 8.41761329889872 0.736 Q 8.371613298898719 0.736 8.32361329889872 0.7254999999999999 Q 8.27561329889872 0.715 8.23761329889872 0.6859999999999999 Q 8.20561329889872 0.659 8.18861329889872 0.625 Q 8.17161329889872 0.591 8.16561329889872 0.5445 Q 8.15961329889872 0.498 8.15961329889872 0.43399999999999994 L 8.15961329889872 0.12 Q 8.15961329889872 0.08299999999999996 8.15411329889872 0.0655 Q 8.14861329889872 0.04799999999999993 8.13261329889872 0.04149999999999998 Q 8.11661329889872 0.03499999999999992 8.08461329889872 0.03399999999999992 L 8.08461329889872 0.014000000000000012 Q 8.10961329889872 0.015000000000000013 8.152113298898719 0.016000000000000014 Q 8.19461329889872 0.017000000000000015 8.24061329889872 0.017000000000000015 Q 8.28661329889872 0.017000000000000015 8.32911329889872 0.016000000000000014 Q 8.371613298898719 0.015000000000000013 8.39961329889872 0.014000000000000012 L 8.39961329889872 0.03399999999999992 Q 8.36561329889872 0.03499999999999992 8.34811329889872 0.04149999999999998 Q 8.33061329889872 0.04799999999999993 8.32461329889872 0.0655 Q 8.31861329889872 0.08299999999999996 8.31861329889872 0.12 L 8.31861329889872 0.497 Q 8.31861329889872 0.564 8.33061329889872 0.6094999999999999 Q 8.34261329889872 0.655 8.37311329889872 0.6779999999999999 Q 8.403613298898719 0.701 8.45661329889872 0.701 Q 8.52661329889872 0.701 8.56611329889872 0.6679999999999999 Q 8.60561329889872 0.635 8.62211329889872 0.5765 Q 8.63861329889872 0.518 8.63861329889872 0.44199999999999995 L 8.63861329889872 0.17799999999999994 Q 8.63861329889872 0.123 8.63161329889872 0.09349999999999992 Q 8.62461329889872 0.06399999999999995 8.60411329889872 0.050999999999999934 Q 8.58361329889872 0.03799999999999992 8.54161329889872 0.03399999999999992 L 8.54161329889872 0.014000000000000012 Q 8.56061329889872 0.015000000000000013 8.59161329889872 0.016000000000000014 Q 8.62261329889872 0.017000000000000015 8.64961329889872 0.017000000000000015 Q 8.67361329889872 0.017000000000000015 8.69711329889872 0.016000000000000014 Q 8.72061329889872 0.015000000000000013 8.73661329889872 0.014000000000000012 M 9.14765773249247 0 Q 9.21365773249247 0 9.25615773249247 0.019499999999999962 Q 9.29865773249247 0.038999999999999924 9.33165773249247 0.06499999999999995 Q 9.35165773249247 0.07999999999999996 9.36215773249247 0.0685 Q 9.37265773249247 0.05699999999999994 9.37665773249247 0.014000000000000012 L 9.399657732492471 0.014000000000000012 Q 9.39765773249247 0.052999999999999936 9.396657732492471 0.10849999999999993 Q 9.39565773249247 0.16399999999999992 9.39565773249247 0.25599999999999995 L 9.37265773249247 0.25599999999999995 Q 9.367657732492471 0.20999999999999996 9.35965773249247 0.1775 Q 9.35165773249247 0.14500000000000002 9.33765773249247 0.12 Q 9.323657732492471 0.09499999999999997 9.297657732492471 0.07499999999999996 Q 9.27265773249247 0.04999999999999993 9.239657732492471 0.03799999999999992 Q 9.20665773249247 0.025999999999999912 9.17065773249247 0.025999999999999912 Q 9.11665773249247 0.025999999999999912 9.07865773249247 0.05449999999999999 Q 9.04065773249247 0.08299999999999996 9.017157732492471 0.132 Q 8.993657732492471 0.18099999999999994 8.98265773249247 0.24249999999999994 Q 8.97165773249247 0.304 8.97165773249247 0.37 Q 8.97165773249247 0.43699999999999994 8.98315773249247 0.49849999999999994 Q 8.99465773249247 0.5599999999999999 9.01915773249247 0.608 Q 9.04365773249247 0.6559999999999999 9.082657732492471 0.6839999999999999 Q 9.121657732492471 0.712 9.17465773249247 0.712 Q 9.207657732492471 0.712 9.241157732492471 0.6995 Q 9.274657732492471 0.6869999999999999 9.29865773249247 0.6629999999999999 Q 9.33765773249247 0.633 9.35165773249247 0.5885 Q 9.36565773249247 0.544 9.37265773249247 0.47 L 9.39565773249247 0.47 Q 9.39565773249247 0.565 9.396657732492471 0.6234999999999999 Q 9.39765773249247 0.6819999999999999 9.399657732492471 0.722 L 9.37665773249247 0.722 Q 9.37265773249247 0.6789999999999999 9.363157732492471 0.6679999999999999 Q 9.35365773249247 0.657 9.33165773249247 0.6709999999999999 Q 9.294657732492471 0.697 9.25315773249247 0.7165 Q 9.21165773249247 0.736 9.146657732492471 0.736 Q 9.04065773249247 0.736 8.96115773249247 0.693 Q 8.88165773249247 0.6499999999999999 8.83765773249247 0.569 Q 8.79365773249247 0.488 8.79365773249247 0.37399999999999994 Q 8.79365773249247 0.26199999999999996 8.83915773249247 0.17799999999999994 Q 8.884657732492471 0.09399999999999997 8.96415773249247 0.04699999999999993 Q 9.04365773249247 0 9.14765773249247 0 M 10.09967482233622 0.014000000000000012 Q 10.095674822336221 0.06499999999999995 10.094174822336221 0.11199999999999999 Q 10.092674822336221 0.15899999999999992 10.092674822336221 0.18399999999999994 Q 10.092674822336221 0.20599999999999996 10.09367482233622 0.22599999999999998 Q 10.094674822336222 0.24599999999999994 10.095674822336221 0.25999999999999995 L 10.072674822336221 0.25999999999999995 Q 10.056674822336221 0.17599999999999993 10.032174822336222 0.127 Q 10.007674822336222 0.07799999999999996 9.973674822336221 0.057499999999999996 Q 9.93967482233622 0.03699999999999992 9.893674822336221 0.03699999999999992 L 9.870674822336222 0.03699999999999992 L 9.870674822336222 0.608 Q 9.870674822336222 0.648 9.879174822336221 0.6679999999999999 Q 9.887674822336221 0.688 9.91067482233622 0.6945 Q 9.933674822336222 0.701 9.97767482233622 0.702 L 9.97767482233622 0.722 Q 9.946674822336222 0.721 9.895174822336221 0.72 Q 9.84367482233622 0.719 9.787674822336221 0.719 Q 9.732674822336222 0.719 9.683674822336222 0.72 Q 9.63467482233622 0.721 9.604674822336221 0.722 L 9.604674822336221 0.702 Q 9.649674822336221 0.701 9.672674822336221 0.6945 Q 9.69567482233622 0.688 9.703674822336222 0.6679999999999999 Q 9.71167482233622 0.648 9.71167482233622 0.608 L 9.71167482233622 0.03699999999999992 L 9.68967482233622 0.03699999999999992 Q 9.643674822336221 0.03699999999999992 9.60967482233622 0.057499999999999996 Q 9.575674822336222 0.07799999999999996 9.55167482233622 0.12649999999999995 Q 9.527674822336222 0.17499999999999993 9.50967482233622 0.25999999999999995 L 9.486674822336221 0.25999999999999995 Q 9.488674822336222 0.24599999999999994 9.48917482233622 0.22599999999999998 Q 9.489674822336221 0.20599999999999996 9.489674822336221 0.18399999999999994 Q 9.489674822336221 0.15899999999999992 9.488174822336221 0.11199999999999999 Q 9.486674822336221 0.06499999999999995 9.482674822336222 0.014000000000000012 Q 9.528674822336221 0.015000000000000013 9.583174822336222 0.016000000000000014 Q 9.637674822336221 0.017000000000000015 9.69267482233622 0.017000000000000015 Q 9.74767482233622 0.017000000000000015 9.79167482233622 0.017000000000000015 Q 9.83667482233622 0.017000000000000015 9.891174822336222 0.017000000000000015 Q 9.94567482233622 0.017000000000000015 10.00067482233622 0.016000000000000014 Q 10.055674822336222 0.015000000000000013 10.09967482233622 0.014000000000000012 M 10.470704607492472 0.014000000000000012 L 10.470704607492472 0.03399999999999992 Q 10.438704607492472 0.03499999999999992 10.422204607492471 0.04149999999999998 Q 10.405704607492472 0.04799999999999993 10.400704607492472 0.0655 Q 10.395704607492473 0.08299999999999996 10.395704607492473 0.12 L 10.395704607492473 0.616 Q 10.395704607492473 0.6519999999999999 10.401204607492472 0.6699999999999999 Q 10.406704607492472 0.688 10.422704607492472 0.694 Q 10.438704607492472 0.7 10.470704607492472 0.702 L 10.470704607492472 0.722 Q 10.443704607492473 0.72 10.402704607492472 0.7195 Q 10.361704607492472 0.719 10.319704607492472 0.719 Q 10.270704607492473 0.719 10.229204607492472 0.7195 Q 10.187704607492472 0.72 10.161704607492473 0.722 L 10.161704607492473 0.702 Q 10.193704607492473 0.7 10.209704607492473 0.694 Q 10.225704607492473 0.688 10.231204607492472 0.6699999999999999 Q 10.236704607492472 0.6519999999999999 10.236704607492472 0.616 L 10.236704607492472 0.12 Q 10.236704607492472 0.08299999999999996 10.231204607492472 0.0655 Q 10.225704607492473 0.04799999999999993 10.209204607492472 0.04149999999999998 Q 10.192704607492471 0.03499999999999992 10.161704607492473 0.03399999999999992 L 10.161704607492473 0.014000000000000012 Q 10.187704607492472 0.015000000000000013 10.229204607492472 0.016000000000000014 Q 10.270704607492473 0.017000000000000015 10.319704607492472 0.017000000000000015 Q 10.361704607492472 0.017000000000000015 10.402704607492472 0.016000000000000014 Q 10.443704607492473 0.015000000000000013 10.470704607492472 0.014000000000000012 M 10.894685564523723 0 Q 11.000685564523723 0 11.080185564523722 0.04299999999999993 Q 11.159685564523723 0.08599999999999997 11.203685564523722 0.16649999999999998 Q 11.247685564523723 0.24699999999999994 11.247685564523723 0.362 Q 11.247685564523723 0.474 11.202685564523723 0.5579999999999999 Q 11.157685564523723 0.642 11.077185564523722 0.689 Q 10.996685564523723 0.736 10.893685564523723 0.736 Q 10.787685564523722 0.736 10.708185564523722 0.693 Q 10.628685564523723 0.6499999999999999 10.584685564523722 0.569 Q 10.540685564523722 0.488 10.540685564523722 0.37399999999999994 Q 10.540685564523722 0.26199999999999996 10.586185564523722 0.17799999999999994 Q 10.631685564523723 0.09399999999999997 10.711185564523722 0.04699999999999993 Q 10.790685564523722 0 10.894685564523723 0 M 10.890685564523723 0.018000000000000016 Q 10.834685564523722 0.018000000000000016 10.793185564523723 0.06299999999999994 Q 10.751685564523722 0.10799999999999998 10.729185564523723 0.18699999999999994 Q 10.706685564523722 0.26599999999999996 10.706685564523722 0.37 Q 10.706685564523722 0.476 10.732185564523723 0.5545 Q 10.757685564523722 0.633 10.801185564523722 0.6755 Q 10.844685564523722 0.718 10.897685564523723 0.718 Q 10.953685564523722 0.718 10.995185564523723 0.6729999999999999 Q 11.036685564523722 0.628 11.059185564523723 0.5485 Q 11.081685564523722 0.469 11.081685564523722 0.366 Q 11.081685564523722 0.25899999999999995 11.056185564523723 0.18099999999999994 Q 11.030685564523722 0.10299999999999998 10.987185564523722 0.0605 Q 10.943685564523722 0.018000000000000016 10.890685564523723 0.018000000000000016 M 11.977719744211223 0.014000000000000012 L 11.977719744211223 0.03399999999999992 Q 11.945719744211223 0.03799999999999992 11.929719744211223 0.05049999999999999 Q 11.913719744211223 0.06299999999999994 11.908219744211223 0.08999999999999997 Q 11.902719744211224 0.11699999999999999 11.902719744211224 0.16599999999999993 L 11.902719744211224 0.724 Q 11.890719744211223 0.723 11.878219744211224 0.723 Q 11.865719744211223 0.723 11.851719744211223 0.724 L 11.417719744211222 0.17399999999999993 L 11.417719744211222 0.5579999999999999 Q 11.417719744211222 0.613 11.423719744211223 0.6425 Q 11.429719744211223 0.6719999999999999 11.450219744211223 0.6845 Q 11.470719744211223 0.697 11.514719744211224 0.702 L 11.514719744211224 0.722 Q 11.495719744211224 0.72 11.464719744211223 0.7195 Q 11.433719744211222 0.719 11.406719744211223 0.719 Q 11.383719744211223 0.719 11.359719744211223 0.7195 Q 11.335719744211223 0.72 11.319719744211223 0.722 L 11.319719744211223 0.702 Q 11.351719744211223 0.697 11.367719744211223 0.6849999999999999 Q 11.383719744211223 0.6729999999999999 11.389219744211223 0.6455 Q 11.394719744211223 0.618 11.394719744211223 0.57 L 11.394719744211223 0.12 Q 11.394719744211223 0.08299999999999996 11.389219744211223 0.0655 Q 11.383719744211223 0.04799999999999993 11.367219744211223 0.04149999999999998 Q 11.350719744211224 0.03499999999999992 11.319719744211223 0.03399999999999992 L 11.319719744211223 0.014000000000000012 Q 11.335719744211223 0.015000000000000013 11.359719744211223 0.016000000000000014 Q 11.383719744211223 0.017000000000000015 11.406719744211223 0.017000000000000015 Q 11.430719744211224 0.017000000000000015 11.452719744211223 0.016000000000000014 Q 11.474719744211223 0.015000000000000013 11.492719744211223 0.014000000000000012 L 11.879719744211224 0.491 L 11.879719744211224 0.17799999999999994 Q 11.879719744211224 0.123 11.873719744211224 0.09349999999999992 Q 11.867719744211223 0.06399999999999995 11.847219744211223 0.050999999999999934 Q 11.826719744211223 0.03799999999999992 11.782719744211223 0.03399999999999992 L 11.782719744211223 0.014000000000000012 Q 11.801719744211223 0.015000000000000013 11.832719744211223 0.016000000000000014 Q 11.863719744211224 0.017000000000000015 11.890719744211223 0.017000000000000015 Q 11.914719744211224 0.017000000000000015 11.938219744211223 0.016000000000000014 Q 11.961719744211223 0.015000000000000013 11.977719744211223 0.014000000000000012" fill="#252d32" fill-rule="nonzero"></path></g><g></g><g clip-path="url(#SvgjsClipPath1001)"><g clip-path="url(#SvgjsClipPath1000cf4089b1-e04e-40d0-b72a-5cf4b3493890)"><path d=" M 3.223807006541792 0.21272650602409637 L 3.312534717385166 0.21272650602409637 L 3.312534717385166 0.4197578313253013 L 3.223807006541792 0.4197578313253013 Z" fill="#ff5f5f" transform="matrix(1,0,0,1,0,0)" fill-rule="nonzero"></path></g><g clip-path="url(#SvgjsClipPath1000cf4089b1-e04e-40d0-b72a-5cf4b3493890)"><path d=" M 3.209019054734563 0.641577108433735 L 3.7709612234092615 0.641577108433735 L 3.7709612234092615 0.9521240963855424 L 3.209019054734563 0.9521240963855424 Z" fill="#ffaa4c" transform="matrix(1,0,0,1,0,0)" fill-rule="nonzero"></path></g><g clip-path="url(#SvgjsClipPath1000cf4089b1-e04e-40d0-b72a-5cf4b3493890)"><path d=" M 3.209019054734563 0.641577108433735 L 3.7118094161803463 0.641577108433735 L 3.7118094161803463 0.8929722891566265 L 3.209019054734563 0.8929722891566265 Z" fill="#ffc960" transform="matrix(1,0,0,1,0,0)" fill-rule="nonzero"></path></g><g clip-path="url(#SvgjsClipPath1000cf4089b1-e04e-40d0-b72a-5cf4b3493890)"><path d=" M 2.6396829101562505 -0.21612409638554228 C 2.3170800797138225 -0.21612409638554228 2.0555588137707077 0.04539716955757256 2.0555588137707077 0.368 L 2.0555588137707077 0.8600543084337351 C 2.055566978420865 0.9108996659469721 2.0967832442094863 0.9521159317355001 2.1476286017226194 0.9521240963855424 L 3.1317372185899846 0.9521240963855424 C 3.182582576103118 0.9521159317354426 3.2237988418916927 0.9108996659468682 3.223807006541792 0.8600543084337351 L 3.223807006541792 0.368 C 3.223807006541792 0.04539716955757256 2.9622857405986776 -0.21612409638554228 2.6396829101562505 -0.21612409638554228 Z" fill="#4f88ff" transform="matrix(1,0,0,1,0,0)" fill-rule="nonzero"></path></g><g clip-path="url(#SvgjsClipPath1000cf4089b1-e04e-40d0-b72a-5cf4b3493890)"><path d=" M 2.602713030638178 -0.21483754457831336 C 2.2951269711106197 -0.1953309698741395 2.055619726874974 0.05979603058692856 2.0555588137707077 0.368 L 2.0555588137707077 0.8600543084337351 C 2.0555635337524025 0.866142224942144 2.05616782711803 0.8722148779442525 2.0573629438911936 0.8781843373494147 L 3.1188125487104665 0.8781843373494147 C 3.127048766917949 0.8781843373493978 3.134947651070402 0.8749125124058381 3.1407715368162448 0.8690886266599955 C 3.146595422562087 0.8632647409141525 3.149867247505648 0.8553658567616993 3.149867247505648 0.8471296385542171 L 3.149867247505648 0.368 C 3.1498063344012412 0.0597960305866615 2.910299090165478 -0.19533096987429713 2.6027130306379114 -0.21483754457833024 Z" fill="#74aaff" transform="matrix(1,0,0,1,0,0)" fill-rule="nonzero"></path></g><g clip-path="url(#SvgjsClipPath1000cf4089b1-e04e-40d0-b72a-5cf4b3493890)"><path d=" M 3.0019877294333583 0.3680000000000001 C 3.0019877294333583 0.568095444653494 2.8397783548097437 0.7303048192771086 2.63968291015625 0.7303048192771086 C 2.439587465502756 0.7303048192771086 2.2773780908791412 0.568095444653494 2.2773780908791412 0.3680000000000001 C 2.2773780908791412 0.16790455534650606 2.439587465502756 0.005695180722891546 2.63968291015625 0.005695180722891546 C 2.8397783548097437 0.005695180722891546 3.0019877294333583 0.16790455534650606 3.0019877294333583 0.3680000000000001 Z" fill="#c5d5f0" transform="matrix(1,0,0,1,0,0)" fill-rule="nonzero"></path></g><g clip-path="url(#SvgjsClipPath1000cf4089b1-e04e-40d0-b72a-5cf4b3493890)"><path d=" M 3.0019877294333583 0.382787951807229 C 3.0019877294333583 0.5665490744481928 2.8530199364116715 0.7155168674698795 2.669258813770708 0.7155168674698795 C 2.4854976911297437 0.7155168674698795 2.336529898108057 0.5665490744481928 2.336529898108057 0.382787951807229 C 2.336529898108057 0.19902682916626507 2.4854976911297437 0.050059036144578295 2.669258813770708 0.050059036144578295 C 2.8530199364116715 0.050059036144578295 3.0019877294333583 0.19902682916626507 3.0019877294333583 0.382787951807229 Z" fill="#dce6f6" transform="matrix(1,0,0,1,0,0)" fill-rule="nonzero"></path></g><g clip-path="url(#SvgjsClipPath1000cf4089b1-e04e-40d0-b72a-5cf4b3493890)"><path d=" M 3.223807006541792 0.36060602409638565 L 3.312534717385166 0.36060602409638565 L 3.312534717385166 0.4197578313253013 L 3.223807006541792 0.4197578313253013 Z" fill="#e23b3b" transform="matrix(1,0,0,1,0,0)" fill-rule="nonzero"></path></g><g clip-path="url(#SvgjsClipPath1000cf4089b1-e04e-40d0-b72a-5cf4b3493890)"><path d=" M 3.1329646185899853 0.9817000000000005 L 2.146401201722515 0.9817000000000005 C 2.0799230472277457 0.9816347853317371 2.0260481248245132 0.9277598629285047 2.0259829101562503 0.8612817084337352 L 2.0259829101562503 0.368 C 2.02598291015625 0.029062849028842153 2.300745759185092 -0.2457 2.6396829101562505 -0.2457000000000001 C 2.978620061127408 -0.2457000000000001 3.25338291015625 0.029062849028841986 3.25338291015625 0.368 L 3.25338291015625 0.8612817084337352 C 3.2533176954879943 0.9277598629284909 3.199442773084768 0.9816347853317295 3.132964618589998 0.9817000000000005 Z M 2.6396829101562505 -0.20133614457831334 C 2.3253958846998035 -0.2009775737486948 2.0707053364075554 0.053712974543553005 2.070346765577937 0.368 L 2.070346765577937 0.8612817084337352 C 2.070395659380854 0.9032651445192685 2.104417765636965 0.9372872507753873 2.1464012017225067 0.9373361445783133 L 3.132964618589985 0.9373361445783133 C 3.174948054675527 0.9372872507753922 3.208970160931642 0.9032651445192772 3.209019054734563 0.8612817084337352 L 3.209019054734563 0.368 C 3.2086523527505078 0.053716348075286136 2.953966562081087 -0.20096944259418975 2.6396829101563117 -0.20133614457831325 Z" fill="#252d32" transform="matrix(1,0,0,1,0,0)" fill-rule="nonzero"></path></g><g clip-path="url(#SvgjsClipPath1000cf4089b1-e04e-40d0-b72a-5cf4b3493890)"><path d=" M 3.7783551993128763 0.9817000000000005 L 3.157261223409262 0.9817000000000005 C 3.1450104830127144 0.9817000000000005 3.135079295698419 0.9717688126857045 3.135079295698419 0.9595180722891568 C 3.135079295698419 0.947267331892609 3.1450104830127144 0.9373361445783133 3.157261223409262 0.9373361445783133 L 3.756173271602033 0.9373361445783133 L 3.756173271602033 0.6563650602409641 L 3.2459889342526353 0.6563650602409641 C 3.2337381938560874 0.6563650602409641 3.223807006541792 0.6464338729266685 3.223807006541792 0.6341831325301207 C 3.223807006541792 0.6219323921335727 3.2337381938560874 0.6120012048192773 3.2459889342526353 0.6120012048192773 L 3.7783551993128763 0.6120012048192773 C 3.790605939709425 0.6120012048192773 3.80053712702372 0.6219323921335727 3.80053712702372 0.6341831325301207 L 3.80053712702372 0.9595180722891568 C 3.80053712702372 0.9717688126857045 3.790605939709425 0.9817000000000005 3.7783551993128763 0.9817000000000005 Z" fill="#252d32" transform="matrix(1,0,0,1,0,0)" fill-rule="nonzero"></path></g><g clip-path="url(#SvgjsClipPath1000cf4089b1-e04e-40d0-b72a-5cf4b3493890)"><path d=" M 2.6396829101562505 0.7450927710843376 C 2.4314203234149367 0.7450927710843376 2.262590139071913 0.576262586741314 2.262590139071913 0.368 C 2.262590139071913 0.15973741325868618 2.4314203234149367 -0.009092771084337342 2.6396829101562505 -0.009092771084337398 C 2.847945496897564 -0.009092771084337398 3.0167756812405875 0.15973741325868607 3.0167756812405875 0.368 C 3.0165393479390046 0.5761646156953218 2.8478475258515434 0.7448564377827702 2.6396829101562362 0.7450927710843376 Z M 2.6396829101562505 0.020483132530120463 C 2.447754643943667 0.020483132530120463 2.2921660426863704 0.17607173378741664 2.2921660426863704 0.368 C 2.2921660426863704 0.5599282662125836 2.447754643943667 0.7155168674698795 2.6396829101562505 0.7155168674698795 C 2.831611176368834 0.7155168674698795 2.9871997776261296 0.5599282662125836 2.9871997776261296 0.3680000000000002 C 2.9869797480795492 0.17616294692578843 2.8315199632304875 0.020703162076715353 2.639682910156263 0.020483132530120518 Z" fill="#252d32" transform="matrix(1,0,0,1,0,0)" fill-rule="nonzero"></path></g><g clip-path="url(#SvgjsClipPath1000cf4089b1-e04e-40d0-b72a-5cf4b3493890)"><path d=" M 3.4160503800357684 0.7746686746987954 C 3.4078832197714033 0.7746686746987954 3.401262428228539 0.7680478831559314 3.401262428228539 0.7598807228915663 L 3.401262428228539 0.6563650602409641 C 3.401262428228539 0.6481978999765989 3.4078832197714033 0.641577108433735 3.4160503800357684 0.641577108433735 C 3.4242175403001336 0.641577108433735 3.430838331842997 0.6481978999765986 3.430838331842997 0.6563650602409641 L 3.430838331842997 0.7598807228915663 C 3.430838331842997 0.7680478831559314 3.4242175403001336 0.7746686746987954 3.4160503800357684 0.7746686746987954 Z" fill="#252d32" transform="matrix(1,0,0,1,0,0)" fill-rule="nonzero"></path></g><g clip-path="url(#SvgjsClipPath1000cf4089b1-e04e-40d0-b72a-5cf4b3493890)"><path d=" M 3.5935058017225154 0.7746686746987954 C 3.5853386414581503 0.7746686746987954 3.578717849915286 0.7680478831559314 3.578717849915286 0.7598807228915663 L 3.578717849915286 0.6563650602409641 C 3.578717849915286 0.6481978999765989 3.5853386414581503 0.641577108433735 3.5935058017225154 0.641577108433735 C 3.6016729619868806 0.641577108433735 3.608293753529744 0.6481978999765986 3.608293753529744 0.6563650602409641 L 3.608293753529744 0.7598807228915663 C 3.608293753529744 0.7680478831559314 3.6016729619868806 0.7746686746987954 3.5935058017225154 0.7746686746987954 Z" fill="#252d32" transform="matrix(1,0,0,1,0,0)" fill-rule="nonzero"></path></g><g clip-path="url(#SvgjsClipPath1000cf4089b1-e04e-40d0-b72a-5cf4b3493890)"><path d=" M 3.31992869328878 0.44933373493975914 L 3.2312009824454067 0.44933373493975914 C 3.2189502420488583 0.44933373493975914 3.209019054734563 0.4394025476254637 3.209019054734563 0.42715180722891577 C 3.209019054734563 0.4149010668323678 3.2189502420488583 0.4049698795180724 3.2312009824454067 0.4049698795180724 L 3.297746765577937 0.4049698795180724 L 3.297746765577937 0.22751445783132535 L 3.2312009824454067 0.22751445783132535 C 3.2189502420488583 0.22751445783132535 3.209019054734563 0.21758327051702986 3.209019054734563 0.20533253012048197 C 3.209019054734563 0.19308178972393408 3.2189502420488583 0.1831506024096386 3.2312009824454067 0.1831506024096386 L 3.31992869328878 0.1831506024096386 C 3.3321794336853285 0.1831506024096386 3.3421106209996236 0.19308178972393408 3.3421106209996236 0.20533253012048197 L 3.3421106209996236 0.42715180722891577 C 3.3421106209996236 0.4394025476254637 3.3321794336853285 0.44933373493975914 3.31992869328878 0.44933373493975914 Z" fill="#252d32" transform="matrix(1,0,0,1,0,0)" fill-rule="nonzero"></path></g><g clip-path="url(#SvgjsClipPath1000cf4089b1-e04e-40d0-b72a-5cf4b3493890)"><path d=" M 2.6396829101562505 0.6120012048192773 C 2.5049247657942235 0.6120012048192773 2.3956817053369734 0.5027581443620269 2.3956817053369734 0.368 C 2.3956817053369734 0.2332418556379735 2.5049247657942235 0.12399879518072299 2.6396829101562505 0.12399879518072288 C 2.7744410545182774 0.12399879518072288 2.8836841149755275 0.23324185563797334 2.8836841149755275 0.368 C 2.8835292801309604 0.5026939575381701 2.7743768676944525 0.6118463699746924 2.6396829101562664 0.6120012048192773 Z M 2.6396829101562505 0.1535746987951807 C 2.521259086322954 0.1535746987951807 2.425257608951431 0.2495761761667039 2.425257608951431 0.368 C 2.425257608951431 0.4864238238332962 2.521259086322954 0.5824253012048193 2.6396829101562505 0.5824253012048193 C 2.758106733989546 0.5824253012048193 2.854108211361069 0.4864238238332962 2.854108211361069 0.368 C 2.8539696804478143 0.24963360503675502 2.758049305119556 0.15371322970846973 2.6396829101562806 0.1535746987951807 Z" fill="#252d32" transform="matrix(1,0,0,1,0,0)" fill-rule="nonzero"></path></g></g></g><defs><clipPath id="SvgjsClipPath1001"><path d=" M 2.02598291015625 -0.24570000000000003 h 1.77455421686747 v 1.2274 h -1.77455421686747 Z"></path></clipPath><clipPath id="SvgjsClipPath1000cf4089b1-e04e-40d0-b72a-5cf4b3493890"><path d=" M 2.02598291015625 -0.2457000000000001 L 3.80053712702372 -0.2457000000000001 L 3.80053712702372 0.9817 L 2.02598291015625 0.9817 Z"></path></clipPath></defs></svg>